<svg width="48" height="48" viewBox="0 0 48 48" fill="none" xmlns="http://www.w3.org/2000/svg">
<path d="M27.1483 1.30492C25.4084 -0.434973 22.5886 -0.434973 20.8487 1.30492L12.1402 10.0164L23.9985 21.8776L35.8598 10.0164L27.1453 1.30492H27.1483ZM37.9776 12.1372L26.1224 23.9985L37.9836 35.8598L46.6951 27.1453C48.435 25.4054 48.435 22.5886 46.6951 20.8517L37.9836 12.1372H37.9776ZM35.8598 37.9776L23.9985 26.1224L12.1372 37.9836L20.8517 46.6951C22.5916 48.435 25.4084 48.435 27.1453 46.6951L35.8598 37.9836V37.9776ZM10.0194 35.8598L21.8746 23.9985L10.0164 12.1372L1.30492 20.8517C-0.434973 22.5916 -0.434973 25.4084 1.30492 27.1453L10.0164 35.8598H10.0194Z" fill="#004698"/>
<path d="M14.7999 21.7143H5.46659C5.09841 21.7143 4.79993 21.3732 4.79993 20.9524V19.4286C4.79993 19.0078 5.09841 18.6667 5.46659 18.6667H14.7999C15.1681 18.6667 15.4666 19.0078 15.4666 19.4286V20.9524C15.4666 21.3732 15.1681 21.7143 14.7999 21.7143ZM13.7999 19.6191C13.5238 19.6191 13.2999 19.8749 13.2999 20.1905C13.2999 20.5061 13.5238 20.7619 13.7999 20.7619C14.0761 20.7619 14.2999 20.5061 14.2999 20.1905C14.2999 19.8749 14.0761 19.6191 13.7999 19.6191ZM12.4666 19.6191C12.1904 19.6191 11.9666 19.8749 11.9666 20.1905C11.9666 20.5061 12.1904 20.7619 12.4666 20.7619C12.7427 20.7619 12.9666 20.5061 12.9666 20.1905C12.9666 19.8749 12.7427 19.6191 12.4666 19.6191ZM14.7999 25.5238H5.46659C5.09841 25.5238 4.79993 25.1827 4.79993 24.7619V23.2381C4.79993 22.8173 5.09841 22.4762 5.46659 22.4762H14.7999C15.1681 22.4762 15.4666 22.8173 15.4666 23.2381V24.7619C15.4666 25.1827 15.1681 25.5238 14.7999 25.5238ZM13.7999 23.4286C13.5238 23.4286 13.2999 23.6844 13.2999 24C13.2999 24.3156 13.5238 24.5714 13.7999 24.5714C14.0761 24.5714 14.2999 24.3156 14.2999 24C14.2999 23.6844 14.0761 23.4286 13.7999 23.4286ZM12.4666 23.4286C12.1904 23.4286 11.9666 23.6844 11.9666 24C11.9666 24.3156 12.1904 24.5714 12.4666 24.5714C12.7427 24.5714 12.9666 24.3156 12.9666 24C12.9666 23.6844 12.7427 23.4286 12.4666 23.4286ZM14.7999 29.3334H5.46659C5.09841 29.3334 4.79993 28.9922 4.79993 28.5714V27.0476C4.79993 26.6269 5.09841 26.2857 5.46659 26.2857H14.7999C15.1681 26.2857 15.4666 26.6269 15.4666 27.0476V28.5714C15.4666 28.9922 15.1681 29.3334 14.7999 29.3334ZM13.7999 27.2381C13.5238 27.2381 13.2999 27.4939 13.2999 27.8095C13.2999 28.1251 13.5238 28.381 13.7999 28.381C14.0761 28.381 14.2999 28.1251 14.2999 27.8095C14.2999 27.4939 14.0761 27.2381 13.7999 27.2381ZM12.4666 27.2381C12.1904 27.2381 11.9666 27.4939 11.9666 27.8095C11.9666 28.1251 12.1904 28.381 12.4666 28.381C12.7427 28.381 12.9666 28.1251 12.9666 27.8095C12.9666 27.4939 12.7427 27.2381 12.4666 27.2381Z" fill="white"/>
<path d="M22.6466 9.71767C22.7768 9.84788 22.9878 9.84788 23.118 9.71767L23.3536 9.48205C23.4839 9.35184 23.4839 9.1408 23.3536 9.01059L22.6095 8.26663L23.3534 7.52247C23.4836 7.39226 23.4836 7.18122 23.3534 7.05101L23.1178 6.81538C22.9876 6.68517 22.7766 6.68517 22.6464 6.81538L21.4309 8.0308C21.3007 8.16101 21.3007 8.37205 21.4309 8.50226L22.6466 9.71767ZM24.6468 9.48226L24.8824 9.71788C25.0126 9.84809 25.2236 9.84809 25.3539 9.71788L26.5693 8.50247C26.6995 8.37226 26.6995 8.16122 26.5693 8.03101L25.3539 6.81559C25.2236 6.68538 25.0126 6.68538 24.8824 6.81559L24.6468 7.05122C24.5166 7.18142 24.5166 7.39247 24.6468 7.52267L25.3907 8.26663L24.6468 9.0108C24.5166 9.14101 24.5166 9.35205 24.6468 9.48226ZM30.3334 12.9333H25.2822C25.2668 13.346 24.9757 13.6 24.6001 13.6H23.3334C22.9441 13.6 22.6455 13.236 22.6507 12.9333H17.6668C17.4834 12.9333 17.3334 13.0833 17.3334 13.2666V13.6C17.3334 14.3333 17.9334 14.9333 18.6668 14.9333H29.3334C30.0668 14.9333 30.6668 14.3333 30.6668 13.6V13.2666C30.6668 13.0833 30.5168 12.9333 30.3334 12.9333ZM29.3334 5.26663C29.3334 4.71663 28.8834 4.26663 28.3334 4.26663H19.6668C19.1168 4.26663 18.6668 4.71663 18.6668 5.26663V12.2666H29.3334V5.26663ZM28.0001 10.9333H20.0001V5.59997H28.0001V10.9333Z" fill="white"/>
<path d="M26.2334 30.9373C25.9801 30.9161 25.7134 30.9798 25.4667 31.1214L19.7001 34.6615C19.0601 35.0579 18.8467 35.9359 19.2134 36.6014L20.2134 38.4352C20.5801 39.1219 21.3934 39.3485 22.0334 38.9591L23.2334 38.2228C23.4134 38.5485 23.6801 38.8104 24.0067 38.9591V40.2123C24.0067 40.984 24.6001 41.6 25.3401 41.6H28.8001V40.2123H25.3401V38.9591C25.9467 38.6759 26.3401 38.0387 26.3401 37.3519C26.3401 37.0262 26.2601 36.7218 26.1134 36.4527L27.8001 35.419C28.4467 35.0225 28.6667 34.1659 28.2934 33.4791L27.2934 31.6453C27.0667 31.2205 26.6601 30.9798 26.2334 30.9373ZM18.2801 36.7643L15.4667 37.2599L15.9667 38.1803L17.3001 40.63L17.8001 41.5504L19.6134 39.214L18.2801 36.7643Z" fill="white"/>
<path d="M43.0122 20.4101L38.3189 18.7433C38.1759 18.6927 38.0227 18.6667 37.8679 18.6667C37.7131 18.6667 37.5599 18.6927 37.4169 18.7433L32.7236 20.4101C32.286 20.5643 32 20.9289 32 21.3331C32 25.4689 34.7989 28.3275 37.4144 29.2568C37.7029 29.3589 38.028 29.3589 38.3164 29.2568C40.4113 28.513 43.7333 25.944 43.7333 21.3331C43.7333 20.9289 43.4473 20.5643 43.0122 20.4101ZM37.8691 27.965L37.8667 20.0267L42.1664 21.5539C42.0858 24.7084 40.1596 26.9941 37.8691 27.965Z" fill="white"/>
</svg>
