<svg width="67" height="71" viewBox="0 0 67 71" fill="none" xmlns="http://www.w3.org/2000/svg">
<path d="M37.8945 1.93019C35.4659 -0.643397 31.5299 -0.643397 29.1013 1.93019L16.9458 14.8159L33.4979 32.3607L50.0542 14.8159L37.8903 1.93019H37.8945ZM53.0104 17.953L36.4625 35.4978L53.0188 53.0426L65.1786 40.1524C67.6071 37.5788 67.6071 33.4123 65.1786 30.8431L53.0188 17.953H53.0104ZM50.0542 56.1752L33.4979 38.6393L16.9416 56.1841L29.1055 69.0698C31.5341 71.6434 35.4659 71.6434 37.8903 69.0698L50.0542 56.1841V56.1752ZM13.9854 53.0426L30.5333 35.4978L13.9812 17.953L1.82145 30.8431C-0.607149 33.4167 -0.607149 37.5833 1.82145 40.1524L13.9812 53.0426H13.9854Z" fill="#004698"/>
<path d="M20.6583 32.1191H7.63051C7.11658 32.1191 6.69995 31.6145 6.69995 30.9921V28.7381C6.69995 28.1157 7.11658 27.6111 7.63051 27.6111H20.6583C21.1722 27.6111 21.5888 28.1157 21.5888 28.7381V30.9921C21.5888 31.6145 21.1722 32.1191 20.6583 32.1191ZM19.2625 29.0198C18.877 29.0198 18.5645 29.3983 18.5645 29.8651C18.5645 30.3319 18.877 30.7103 19.2625 30.7103C19.6479 30.7103 19.9604 30.3319 19.9604 29.8651C19.9604 29.3983 19.6479 29.0198 19.2625 29.0198ZM17.4013 29.0198C17.0159 29.0198 16.7034 29.3983 16.7034 29.8651C16.7034 30.3319 17.0159 30.7103 17.4013 30.7103C17.7868 30.7103 18.0993 30.3319 18.0993 29.8651C18.0993 29.3983 17.7868 29.0198 17.4013 29.0198ZM20.6583 37.754H7.63051C7.11658 37.754 6.69995 37.2494 6.69995 36.627V34.373C6.69995 33.7506 7.11658 33.246 7.63051 33.246H20.6583C21.1722 33.246 21.5888 33.7506 21.5888 34.373V36.627C21.5888 37.2494 21.1722 37.754 20.6583 37.754ZM19.2625 34.6548C18.877 34.6548 18.5645 35.0332 18.5645 35.5C18.5645 35.9668 18.877 36.3452 19.2625 36.3452C19.6479 36.3452 19.9604 35.9668 19.9604 35.5C19.9604 35.0332 19.6479 34.6548 19.2625 34.6548ZM17.4013 34.6548C17.0159 34.6548 16.7034 35.0332 16.7034 35.5C16.7034 35.9668 17.0159 36.3452 17.4013 36.3452C17.7868 36.3452 18.0993 35.9668 18.0993 35.5C18.0993 35.0332 17.7868 34.6548 17.4013 34.6548ZM20.6583 43.3889H7.63051C7.11658 43.3889 6.69995 42.8843 6.69995 42.2619V40.0079C6.69995 39.3855 7.11658 38.881 7.63051 38.881H20.6583C21.1722 38.881 21.5888 39.3855 21.5888 40.0079V42.2619C21.5888 42.8843 21.1722 43.3889 20.6583 43.3889ZM19.2625 40.2897C18.877 40.2897 18.5645 40.6681 18.5645 41.1349C18.5645 41.6017 18.877 41.9802 19.2625 41.9802C19.6479 41.9802 19.9604 41.6017 19.9604 41.1349C19.9604 40.6681 19.6479 40.2897 19.2625 40.2897ZM17.4013 40.2897C17.0159 40.2897 16.7034 40.6681 16.7034 41.1349C16.7034 41.6017 17.0159 41.9802 17.4013 41.9802C17.7868 41.9802 18.0993 41.6017 18.0993 41.1349C18.0993 40.6681 17.7868 40.2897 17.4013 40.2897Z" fill="white" fill-opacity="0.76"/>
<path d="M31.6108 14.3741C31.7926 14.5667 32.0871 14.5667 32.2689 14.3741L32.5978 14.0256C32.7795 13.833 32.7795 13.5208 32.5978 13.3282L31.5591 12.2278L32.5975 11.127C32.7792 10.9344 32.7792 10.6223 32.5975 10.4297L32.2686 10.0811C32.0869 9.88852 31.7923 9.88852 31.6105 10.0811L29.914 11.8789C29.7323 12.0715 29.7323 12.3837 29.914 12.5763L31.6108 14.3741V14.3741ZM34.4028 14.0259L34.7317 14.3744C34.9134 14.567 35.208 14.567 35.3897 14.3744L37.0863 12.5766C37.268 12.384 37.268 12.0718 37.0863 11.8792L35.3897 10.0814C35.208 9.88883 34.9134 9.88883 34.7317 10.0814L34.4028 10.43C34.221 10.6226 34.221 10.9347 34.4028 11.1273L35.4412 12.2278L34.4028 13.3285C34.221 13.5211 34.221 13.8333 34.4028 14.0259V14.0259ZM42.3404 19.1305H35.2897C35.2682 19.741 34.8619 20.1167 34.3376 20.1167H32.5696C32.0261 20.1167 31.6094 19.5783 31.6166 19.1305H24.6599C24.404 19.1305 24.1946 19.3524 24.1946 19.6236V20.1167C24.1946 21.2014 25.0321 22.0889 26.0557 22.0889H40.9446C41.9682 22.0889 42.8057 21.2014 42.8057 20.1167V19.6236C42.8057 19.3524 42.5963 19.1305 42.3404 19.1305ZM40.9446 7.79026C40.9446 6.97672 40.3165 6.3111 39.5487 6.3111H27.4515C26.6838 6.3111 26.0557 6.97672 26.0557 7.79026V18.1444H40.9446V7.79026ZM39.0835 16.1722H27.9168V8.28332H39.0835V16.1722Z" fill="white" fill-opacity="0.76"/>
<path d="M36.6174 45.7615C36.2638 45.73 35.8916 45.8243 35.5473 46.0338L27.498 51.2701C26.6046 51.8566 26.3068 53.1552 26.8186 54.1396L28.2145 56.852C28.7263 57.8679 29.8616 58.203 30.7549 57.627L32.4299 56.5379C32.6811 57.0196 33.0534 57.4071 33.5093 57.627V59.4807C33.5093 60.6222 34.3375 61.5333 35.3705 61.5333H40.2V59.4807H35.3705V57.627C36.2173 57.2081 36.7663 56.2656 36.7663 55.2497C36.7663 54.768 36.6546 54.3177 36.4499 53.9197L38.8042 52.3907C39.7068 51.8042 40.0139 50.537 39.4928 49.5212L38.097 46.8087C37.7806 46.1804 37.213 45.8243 36.6174 45.7615ZM25.5159 54.3805L21.5889 55.1136L22.2868 56.475L24.148 60.0986L24.8459 61.46L27.377 58.004L25.5159 54.3805Z" fill="white" fill-opacity="0.75"/>
<path d="M60.0379 30.1899L53.4868 27.7244C53.2872 27.6496 53.0733 27.6111 52.8573 27.6111C52.6412 27.6111 52.4273 27.6496 52.2278 27.7244L45.6767 30.1899C45.0659 30.418 44.6667 30.9573 44.6667 31.5552C44.6667 37.6727 48.5735 41.9011 52.2243 43.2756C52.627 43.4266 53.0808 43.4266 53.4834 43.2756C56.4075 42.1754 61.0445 38.3754 61.0445 31.5552C61.0445 30.9573 60.6453 30.418 60.0379 30.1899ZM52.859 41.3649L52.8556 29.6228L58.8574 31.8819C58.7448 36.5479 56.0561 39.9287 52.859 41.3649Z" fill="white" fill-opacity="0.76"/>
</svg>
