<svg width="109" height="109" viewBox="0 0 109 109" fill="none" xmlns="http://www.w3.org/2000/svg">
<path d="M104.028 49.1986C102.998 50.2283 101.323 50.2084 100.327 49.1465C96.2159 44.7644 89.2545 38.6316 79.055 34.4548C73.8456 32.3216 65.9932 29.9619 56.2836 29.9615C46.5467 29.9611 38.6981 32.334 33.5555 34.4348C23.3308 38.6117 16.3535 44.7574 12.2353 49.1467C11.239 50.2086 9.56423 50.2283 8.53463 49.1987L4.75847 45.4225C3.7697 44.4337 3.74364 42.8414 4.70399 41.825C9.23432 37.0302 17.472 29.6191 29.5267 24.6993C41.6515 19.7509 52.4718 19.4312 56.2804 19.4312C56.282 19.4312 56.2828 19.4312 56.2836 19.4312C60.1231 19.4312 70.9409 19.7567 83.0664 24.7121C95.1028 29.6314 103.327 37.0283 107.859 41.8249C108.819 42.8413 108.793 44.4336 107.804 45.4224L104.028 49.1986Z" fill="#005670"/>
<path d="M89.7363 63.4902C88.7075 64.5191 87.0352 64.4997 86.0374 63.4408C82.0391 59.1975 71.7871 50.2323 56.2813 50.2323C40.7754 50.2323 30.5234 59.1975 26.5252 63.4408C25.5274 64.4997 23.8551 64.5191 22.8262 63.4902L19.0552 59.7192C18.0628 58.7268 18.0472 57.1302 19.0118 56.1109C23.6259 51.2349 36.5575 39.7056 56.2813 39.7056C76.005 39.7056 88.9366 51.2349 93.5508 56.1109C94.5154 57.1302 94.4998 58.7268 93.5074 59.7192L89.7363 63.4902Z" fill="#005670"/>
<path d="M75.4937 77.7329C74.4447 78.7819 72.7409 78.7291 71.7458 77.6288C69.9946 75.6926 67.3039 73.359 63.5263 71.885C59.982 70.5021 56.9858 70.4629 56.2812 70.4629C55.5764 70.4629 52.5802 70.5021 49.0361 71.8848C45.2584 73.3588 42.5677 75.6924 40.8165 77.6287C39.8214 78.729 38.1176 78.7818 37.0686 77.7328L33.3222 73.9864C32.3551 73.0194 32.2999 71.4631 33.2146 70.4464C35.573 67.8251 39.4288 64.3773 45.0246 62.1426C50.2556 60.0536 54.7336 59.9326 56.2812 59.9326C57.8287 59.9326 62.3067 60.0536 67.5377 62.1426C73.1336 64.3773 76.9893 67.8251 79.3477 70.4464C80.2624 71.4631 80.2072 73.0193 79.2402 73.9864L75.4937 77.7329Z" fill="#005670"/>
<path d="M61.104 91.8915L56.2812 87.0687L61.1097 82.2402C62.198 83.3285 62.9254 84.7891 63.0801 86.4444C63.2691 88.5465 62.4844 90.5111 61.104 91.8915Z" fill="#C91E01"/>
<path d="M56.2811 87.0688L61.1039 91.8916C60.0156 92.9799 58.555 93.7073 56.8997 93.862C54.8034 94.0567 52.8388 93.272 51.4584 91.8916L56.2811 87.0688Z" fill="#C91E01"/>
<path d="M56.2812 87.0689L51.4584 91.8916C50.3701 90.8034 49.6427 89.3428 49.488 87.6875C49.2933 85.5911 50.078 83.6265 51.4584 82.2461L56.2812 87.0689Z" fill="#C91E01"/>
<path d="M61.1096 82.2398L56.2811 87.0683L51.4584 82.2455C52.5466 81.1573 54.0072 80.4299 55.6625 80.2752C57.7589 80.0805 59.7292 80.8594 61.1096 82.2398Z" fill="#C91E01"/>
<path d="M104.028 46.7674C102.998 47.7971 101.323 47.7773 100.327 46.7153C96.2159 42.3332 89.2545 36.2005 79.055 32.0236C73.8456 29.8904 65.9932 27.5307 56.2836 27.5303C46.5467 27.5299 38.6981 29.9029 33.5555 32.0037C23.3308 36.1806 16.3535 42.3262 12.2353 46.7156C11.239 47.7774 9.56423 47.7971 8.53463 46.7675L4.75847 42.9914C3.7697 42.0026 3.74364 40.4102 4.70399 39.3938C9.23432 34.599 17.472 27.188 29.5267 22.2681C41.6515 17.3198 52.4718 17 56.2804 17C56.282 17 56.2828 17 56.2836 17C60.1231 17 70.9409 17.3255 83.0664 22.281C95.1028 27.2002 103.327 34.5972 107.859 39.3937C108.819 40.4102 108.793 42.0025 107.804 42.9912L104.028 46.7674Z" fill="#0F627F"/>
<path d="M89.7362 61.0601C88.7074 62.0889 87.035 62.0696 86.0372 61.0106C82.039 56.7674 71.787 47.8022 56.2812 47.8022C40.7753 47.8022 30.5233 56.7674 26.5251 61.0106C25.5273 62.0696 23.8549 62.0889 22.8261 61.0601L19.055 57.289C18.0627 56.2966 18.0471 54.7 19.0117 53.6807C23.6258 48.8047 36.5574 37.2754 56.2812 37.2754C76.0049 37.2754 88.9365 48.8047 93.5506 53.6807C94.5153 54.7 94.4996 56.2966 93.5073 57.289L89.7362 61.0601Z" fill="#0F627F"/>
<path d="M75.4937 75.3018C74.4447 76.3508 72.7409 76.298 71.7458 75.1977C69.9946 73.2614 67.3039 70.9279 63.5263 69.4539C59.982 68.071 56.9858 68.0318 56.2812 68.0318C55.5764 68.0318 52.5802 68.071 49.0361 69.4537C45.2584 70.9277 42.5677 73.2613 40.8165 75.1976C39.8214 76.2979 38.1176 76.3507 37.0686 75.3017L33.3222 71.5552C32.3551 70.5882 32.2999 69.032 33.2146 68.0153C35.573 65.394 39.4288 61.9462 45.0246 59.7114C50.2556 57.6225 54.7336 57.5015 56.2812 57.5015C57.8287 57.5015 62.3067 57.6225 67.5377 59.7114C73.1336 61.9462 76.9893 65.394 79.3477 68.0153C80.2624 69.032 80.2072 70.5882 79.2402 71.5552L75.4937 75.3018Z" fill="#0F627F"/>
</svg>
