<svg width="233" height="232" viewBox="0 0 233 232" fill="none" xmlns="http://www.w3.org/2000/svg">
<rect x="0.582031" width="231.862" height="231.862" rx="30" fill="#004698"/>
<path d="M182.587 49.6851H50.0943C37.8995 49.6851 28.0122 59.5723 28.0122 71.7672V160.096C28.0122 172.29 37.8995 182.178 50.0943 182.178H182.587C194.782 182.178 204.669 172.29 204.669 160.096V71.7672C204.669 59.5723 194.782 49.6851 182.587 49.6851ZM146.24 108.61L192.981 68.5539C193.305 69.589 193.628 70.6241 193.628 71.7672V160.096C193.628 160.861 193.337 161.541 193.186 162.263L146.24 108.61ZM182.587 60.7261C183.32 60.7261 183.967 61.0066 184.657 61.1467L116.341 119.705L48.0241 61.1467C48.7142 61.0066 49.3611 60.7261 50.0943 60.7261H182.587ZM39.4901 162.252C39.3389 161.53 39.0533 160.861 39.0533 160.096V71.7672C39.0533 70.6241 39.3821 69.589 39.7057 68.5539L86.4308 108.599L39.4901 162.252ZM50.0943 171.137C48.9785 171.137 47.9648 170.813 46.9459 170.5L94.8192 115.791L112.75 131.156C113.78 132.051 115.063 132.493 116.341 132.493C117.618 132.493 118.901 132.051 119.931 131.156L137.862 115.791L185.735 170.501C184.722 170.813 183.708 171.137 182.587 171.137H50.0943Z" fill="white"/>
</svg>
