<svg width="232" height="232" viewBox="0 0 232 232" fill="none" xmlns="http://www.w3.org/2000/svg">
<path d="M116 47.0214C78.3518 47.0214 47.7464 77.6268 47.6946 115.275C47.6946 128.17 51.3196 140.754 58.1554 151.577L59.7607 154.166L52.8732 179.334L78.7143 172.55L81.2 174.052C91.6607 180.266 103.675 183.58 115.948 183.58H116C153.596 183.58 185.03 152.975 185.03 115.327C185.03 97.0982 177.159 79.9571 164.264 67.0625C151.318 54.1161 134.229 47.0214 116 47.0214ZM156.134 144.586C154.425 149.402 146.243 153.752 142.307 154.321C135.782 155.305 130.707 154.788 117.709 149.195C97.15 140.288 83.6857 119.573 82.65 118.227C81.6143 116.88 74.2607 107.093 74.2607 96.9946C74.2607 86.8964 79.5429 81.925 81.4589 79.8536C83.3232 77.7821 85.55 77.2643 86.9482 77.2643C88.2946 77.2643 89.6929 77.2643 90.8839 77.3161C92.1268 77.3679 93.8357 76.85 95.4929 80.8375C97.2018 84.9286 101.293 95.0268 101.811 96.0625C102.329 97.0982 102.691 98.2893 101.966 99.6357C98.0304 107.507 93.8357 107.196 95.9589 110.821C103.882 124.441 111.805 129.154 123.871 135.213C125.943 136.248 127.134 136.093 128.325 134.695C129.516 133.348 133.452 128.688 134.798 126.668C136.145 124.596 137.543 124.959 139.407 125.632C141.271 126.305 151.37 131.277 153.441 132.312C155.512 133.348 156.859 133.866 157.377 134.695C157.843 135.679 157.843 139.821 156.134 144.586ZM207.143 0H24.8571C11.1339 0 0 11.1339 0 24.8571V207.143C0 220.866 11.1339 232 24.8571 232H207.143C220.866 232 232 220.866 232 207.143V24.8571C232 11.1339 220.866 0 207.143 0ZM115.948 197.407C102.173 197.407 88.6571 193.937 76.6946 187.412L33.1429 198.857L44.7946 156.289C37.5964 143.861 33.8161 129.723 33.8161 115.223C33.8679 69.9625 70.6875 33.1429 115.948 33.1429C137.905 33.1429 158.516 41.6875 174.052 57.2232C189.536 72.7589 198.857 93.3696 198.857 115.327C198.857 160.587 161.209 197.407 115.948 197.407Z" fill="#004698"/>
</svg>
