<svg width="130" height="130" viewBox="0 0 130 130" fill="none" xmlns="http://www.w3.org/2000/svg">
<path d="M40.5823 58.7275C30.8648 58.7275 22.9856 66.6047 22.9856 76.3242C22.9856 86.0438 30.8628 93.9209 40.5823 93.9209V58.7275Z" fill="#F2F2F2" stroke="#004698" stroke-width="3" stroke-miterlimit="10" stroke-linecap="round" stroke-linejoin="round"/>
<path d="M22.8008 76.3242V49.3959C22.8008 24.9194 42.642 5.07812 67.1186 5.07812C91.5951 5.07812 111.434 24.9194 111.434 49.3959V76.3263" stroke="#004698" stroke-width="3" stroke-miterlimit="10" stroke-linecap="round" stroke-linejoin="round"/>
<path d="M111.434 53.5478C111.434 32.8473 91.5931 16.0652 67.1166 16.0652C42.64 16.0652 22.8008 32.8453 22.8008 53.5478V49.3959C22.8008 24.9194 42.642 5.07812 67.1186 5.07812C91.5951 5.07812 111.434 24.9194 111.434 49.3959V53.5478Z" fill="#F5F5F5" stroke="#004698" stroke-width="2" stroke-miterlimit="10" stroke-linecap="round" stroke-linejoin="round"/>
<path d="M47.7771 58.7275V93.9209" stroke="#004698" stroke-width="2" stroke-miterlimit="10" stroke-linecap="round" stroke-linejoin="round"/>
<path d="M93.8376 93.9209C103.555 93.9209 111.434 86.0438 111.434 76.3242C111.434 66.6047 103.557 58.7275 93.8376 58.7275V93.9209Z" fill="#F2F2F2" stroke="#004698" stroke-width="3" stroke-miterlimit="10" stroke-linecap="round" stroke-linejoin="round"/>
<path d="M86.6429 93.9209V58.7275" stroke="#004698" stroke-width="2" stroke-miterlimit="10" stroke-linecap="round" stroke-linejoin="round"/>
<path d="M18.5758 66.2675V102.763C18.5758 102.763 16.7131 121.012 62.8936 121.012" stroke="#004698" stroke-width="3" stroke-miterlimit="10" stroke-linecap="round" stroke-linejoin="round"/>
<path d="M74.362 124.922H59.8711C57.917 124.922 56.3164 123.323 56.3164 121.367V120.656C56.3164 118.702 57.917 117.102 59.8711 117.102H74.362C76.3161 117.102 77.9167 118.7 77.9167 120.656V121.367C77.9167 123.323 76.3181 124.922 74.362 124.922Z" fill="#F2F2F2" stroke="#004698" stroke-width="2" stroke-miterlimit="10" stroke-linecap="round" stroke-linejoin="round"/>
</svg>
