<svg width="130" height="130" viewBox="0 0 130 130" fill="none" xmlns="http://www.w3.org/2000/svg">
<path d="M79.4767 94.5222H50.5212V118.875H79.4767V94.5222Z" fill="#278BFF" stroke="#004698" stroke-width="3" stroke-miterlimit="10" stroke-linecap="round" stroke-linejoin="round"/>
<path d="M42.774 118.875H87.2239" stroke="#004698" stroke-width="3" stroke-miterlimit="10" stroke-linecap="round" stroke-linejoin="round"/>
<path d="M50.5212 106.939H61.1467" stroke="#004698" stroke-width="3" stroke-miterlimit="10" stroke-linecap="round" stroke-linejoin="round"/>
<path d="M125.113 11.1252H4.88916V70.0273H125.113V11.1252Z" fill="#F2F2F2" stroke="#004698" stroke-width="3" stroke-miterlimit="10" stroke-linecap="round" stroke-linejoin="round"/>
<path d="M125.113 70.0273H4.88916V95.3002H125.113V70.0273Z" fill="#278BFF" stroke="#004698" stroke-width="3" stroke-miterlimit="10" stroke-linecap="round" stroke-linejoin="round"/>
<path d="M64.9777 87.9105C67.8754 87.9105 70.2244 85.5614 70.2244 82.6638C70.2244 79.7661 67.8754 77.417 64.9777 77.417C62.08 77.417 59.731 79.7661 59.731 82.6638C59.731 85.5614 62.08 87.9105 64.9777 87.9105Z" fill="#F2F2F2" stroke="#004698" stroke-miterlimit="10" stroke-linecap="round" stroke-linejoin="round"/>
<path d="M125.111 11.2206H5.07812V23.4548H125.111V11.2206Z" fill="#278BFF" stroke="#004698" stroke-width="3" stroke-miterlimit="10" stroke-linecap="round" stroke-linejoin="round"/>
<path d="M13.1544 18.7261C13.9206 18.7261 14.5417 18.105 14.5417 17.3388C14.5417 16.5725 13.9206 15.9514 13.1544 15.9514C12.3882 15.9514 11.767 16.5725 11.767 17.3388C11.767 18.105 12.3882 18.7261 13.1544 18.7261Z" fill="#F2F2F2" stroke="#004698" stroke-miterlimit="10" stroke-linecap="round" stroke-linejoin="round"/>
<path d="M18.395 18.7261C19.1612 18.7261 19.7823 18.105 19.7823 17.3388C19.7823 16.5725 19.1612 15.9514 18.395 15.9514C17.6288 15.9514 17.0076 16.5725 17.0076 17.3388C17.0076 18.105 17.6288 18.7261 18.395 18.7261Z" fill="#F2F2F2" stroke="#004698" stroke-miterlimit="10" stroke-linecap="round" stroke-linejoin="round"/>
<path d="M23.6336 18.7261C24.3998 18.7261 25.021 18.105 25.021 17.3388C25.021 16.5725 24.3998 15.9514 23.6336 15.9514C22.8674 15.9514 22.2463 16.5725 22.2463 17.3388C22.2463 18.105 22.8674 18.7261 23.6336 18.7261Z" fill="#F2F2F2" stroke="#004698" stroke-miterlimit="10" stroke-linecap="round" stroke-linejoin="round"/>
<path d="M63.2166 29.7538H32.821V45.0734H63.2166V29.7538Z" fill="#278BFF" stroke="#004698" stroke-miterlimit="10" stroke-linecap="round" stroke-linejoin="round"/>
<path d="M63.2166 45.0734H32.821V50.1516H63.2166V45.0734Z" fill="#278BFF" stroke="#004698" stroke-miterlimit="10" stroke-linecap="round" stroke-linejoin="round"/>
<path d="M49.8205 37.4136L47.968 38.482L46.1176 39.5505V37.4136V35.2767L47.968 36.3452L49.8205 37.4136Z" fill="#278BFF" stroke="#004698" stroke-miterlimit="10" stroke-linecap="round" stroke-linejoin="round"/>
<path d="M32.5122 55.9792H62.8063" stroke="#004698" stroke-miterlimit="10" stroke-linecap="round" stroke-linejoin="round"/>
<path d="M32.5122 62.92H63.1821" stroke="#004698" stroke-miterlimit="10" stroke-linecap="round" stroke-linejoin="round"/>
<path d="M32.5122 59.5278H62.8063" stroke="#004698" stroke-miterlimit="10" stroke-linecap="round" stroke-linejoin="round"/>
<path d="M66.8829 55.9792H97.179" stroke="#004698" stroke-miterlimit="10" stroke-linecap="round" stroke-linejoin="round"/>
<path d="M66.8829 62.92H86.8968" stroke="#004698" stroke-miterlimit="10" stroke-linecap="round" stroke-linejoin="round"/>
<path d="M66.8829 59.5278H97.179" stroke="#004698" stroke-miterlimit="10" stroke-linecap="round" stroke-linejoin="round"/>
<path d="M79.7184 29.7538H67.1937V38.09H79.7184V29.7538Z" fill="#278BFF" stroke="#004698" stroke-miterlimit="10" stroke-linecap="round" stroke-linejoin="round"/>
<path d="M97.4878 29.7538H84.9631V38.09H97.4878V29.7538Z" fill="#278BFF" stroke="#004698" stroke-miterlimit="10" stroke-linecap="round" stroke-linejoin="round"/>
<path d="M79.7184 41.8153H67.1937V50.1516H79.7184V41.8153Z" fill="#278BFF" stroke="#004698" stroke-miterlimit="10" stroke-linecap="round" stroke-linejoin="round"/>
<path d="M97.4878 41.8153H84.9631V50.1516H97.4878V41.8153Z" fill="#278BFF" stroke="#004698" stroke-miterlimit="10" stroke-linecap="round" stroke-linejoin="round"/>
</svg>
