<svg width="30" height="23" viewBox="0 0 30 23" fill="none" xmlns="http://www.w3.org/2000/svg">
<path d="M25.2 10.0645C25.3922 9.54199 25.5 8.9707 25.5 8.375C25.5 5.78711 23.4844 3.6875 21 3.6875C20.0766 3.6875 19.2141 3.98047 18.5016 4.47852C17.2031 2.13477 14.7797 0.5625 12 0.5625C7.85625 0.5625 4.5 4.05859 4.5 8.375C4.5 8.50684 4.50469 8.63867 4.50937 8.77051C1.88437 9.73242 0 12.3398 0 15.4062C0 19.2881 3.02344 22.4375 6.75 22.4375H24C27.3141 22.4375 30 19.6396 30 16.1875C30 13.165 27.9375 10.6406 25.2 10.0645ZM18.4406 13.0625H15.375V18.5312C15.375 18.9609 15.0375 19.3125 14.625 19.3125H12.375C11.9625 19.3125 11.625 18.9609 11.625 18.5312V13.0625H8.55938C7.88906 13.0625 7.55625 12.2227 8.02969 11.7295L12.9703 6.58301C13.2609 6.28027 13.7391 6.28027 14.0297 6.58301L18.9703 11.7295C19.4438 12.2227 19.1062 13.0625 18.4406 13.0625V13.0625Z" fill="#004698"/>
</svg>
