<svg width="30" height="28" viewBox="0 0 30 28" fill="none" xmlns="http://www.w3.org/2000/svg">
<path d="M28.6172 18.998C28.7391 18.1719 28.7391 17.3281 28.6172 16.5019L29.8266 15.6289C29.9672 15.5293 30.0281 15.3242 29.9812 15.1309C29.6672 13.8652 29.1281 12.7168 28.425 11.7676C28.3172 11.6211 28.1438 11.5859 28.0031 11.6855L26.7937 12.5586C26.2828 12.0137 25.6969 11.5918 25.0641 11.3105V9.56445C25.0641 9.36523 24.9516 9.18945 24.7969 9.14844C23.7516 8.85547 22.6875 8.86719 21.6937 9.14844C21.5391 9.18945 21.4266 9.36523 21.4266 9.56445V11.3105C20.7938 11.5918 20.2078 12.0137 19.6969 12.5586L18.4875 11.6855C18.3516 11.5859 18.1734 11.6211 18.0656 11.7676C17.3625 12.7168 16.8234 13.8652 16.5094 15.1309C16.4625 15.3242 16.5281 15.5293 16.6641 15.6289L17.8734 16.5019C17.7516 17.3281 17.7516 18.1719 17.8734 18.998L16.6641 19.8711C16.5234 19.9707 16.4625 20.1758 16.5094 20.3691C16.8234 21.6348 17.3625 22.7773 18.0656 23.7324C18.1734 23.8789 18.3469 23.9141 18.4875 23.8144L19.6969 22.9414C20.2078 23.4863 20.7938 23.9082 21.4266 24.1894V25.9355C21.4266 26.1348 21.5391 26.3105 21.6937 26.3516C22.7391 26.6445 23.8031 26.6328 24.7969 26.3516C24.9516 26.3105 25.0641 26.1348 25.0641 25.9355V24.1894C25.6969 23.9082 26.2828 23.4863 26.7937 22.9414L28.0031 23.8144C28.1391 23.9141 28.3172 23.8789 28.425 23.7324C29.1281 22.7832 29.6672 21.6348 29.9812 20.3691C30.0281 20.1758 29.9625 19.9707 29.8266 19.8711L28.6172 18.998ZM23.25 20.5918C21.9938 20.5918 20.9766 19.3144 20.9766 17.75C20.9766 16.1855 21.9984 14.9082 23.25 14.9082C24.5016 14.9082 25.5234 16.1855 25.5234 17.75C25.5234 19.3144 24.5062 20.5918 23.25 20.5918ZM4.5 12.125C6.15469 12.125 7.5 10.4434 7.5 8.375C7.5 6.30664 6.15469 4.625 4.5 4.625C2.84531 4.625 1.5 6.30664 1.5 8.375C1.5 10.4434 2.84531 12.125 4.5 12.125ZM15 14C15.0891 14 15.1734 13.9707 15.2625 13.9648C15.6516 12.6934 16.2234 11.498 16.9641 10.4961C17.3109 10.0273 17.8031 9.75781 18.3187 9.75781C18.6422 9.75781 18.9609 9.86328 19.2375 10.0684L19.6078 10.3379C19.6453 10.3086 19.6828 10.2852 19.7203 10.2559C20.0484 9.40039 20.2453 8.45117 20.2453 7.44336C20.2453 3.81641 17.8969 0.880859 14.9953 0.880859C12.0937 0.880859 9.75 3.81055 9.75 7.4375C9.75 11.0645 12.0984 14 15 14ZM19.9313 25.3965C19.8234 25.3262 19.7156 25.2441 19.6125 25.168C19.2281 25.4492 18.8953 25.7422 18.3234 25.7422C17.8125 25.7422 17.3203 25.4726 16.9688 25.0039C16.1109 23.8437 15.4547 22.4316 15.0844 20.9258C14.5828 18.9043 16.2516 18.0137 16.2938 17.9785C16.2891 17.8262 16.2891 17.6738 16.2938 17.5215L15.9234 17.2519C15.7453 17.123 15.5953 16.959 15.4641 16.7773C15.3094 16.7891 15.1594 16.8125 15.0047 16.8125C13.8516 16.8125 12.7734 16.4609 11.7938 15.875H11.4047C8.41875 15.875 6 18.8984 6 22.625V24.3125C6 25.8652 7.00781 27.125 8.25 27.125H20.2219C20.0484 26.7734 19.9313 26.375 19.9313 25.9355V25.3965ZM8.11406 15.0898C7.57031 14.416 6.825 14 6 14H3C1.34531 14 0 15.6816 0 17.75V19.625C0 20.6621 0.670312 21.5 1.5 21.5H4.58906C4.88438 18.7227 6.225 16.3848 8.11406 15.0898V15.0898Z" fill="#004698"/>
</svg>
