<svg width="130" height="130" viewBox="0 0 130 130" fill="none" xmlns="http://www.w3.org/2000/svg">
<path d="M51.3358 28.5919H6.13843V110.937H51.3358V28.5919Z" fill="#F2F2F2" stroke="#004698" stroke-width="3" stroke-miterlimit="10" stroke-linecap="round" stroke-linejoin="round"/>
<path d="M28.7361 89.5639C36.5104 89.5639 42.8127 80.6989 42.8127 69.7633C42.8127 58.8277 36.5104 49.9627 28.7361 49.9627C20.9618 49.9627 14.6595 58.8277 14.6595 69.7633C14.6595 80.6989 20.9618 89.5639 28.7361 89.5639Z" fill="#278BFF" stroke="#004698" stroke-width="2" stroke-miterlimit="10" stroke-linecap="round" stroke-linejoin="round"/>
<path d="M6.1344 42.7334C9.75409 42.7334 13.3738 41.3542 16.1363 38.5917C18.8967 35.8312 20.278 32.2116 20.278 28.5919" stroke="#004698" stroke-width="2" stroke-miterlimit="10"/>
<path d="M36.8124 28.5898C36.8124 32.2095 38.1916 35.8292 40.9541 38.5917C43.7146 41.3522 47.3342 42.7334 50.9539 42.7334" stroke="#004698" stroke-width="2" stroke-miterlimit="10"/>
<path d="M50.9539 96.7931C47.3342 96.7931 43.7145 98.1724 40.952 100.935C38.1916 103.695 36.8103 107.315 36.8103 110.935" stroke="#004698" stroke-width="2" stroke-miterlimit="10"/>
<path d="M20.276 110.937C20.276 107.317 18.8967 103.697 16.1342 100.935C13.3738 98.1744 9.75409 96.7931 6.1344 96.7931" stroke="#004698" stroke-width="2" stroke-miterlimit="10"/>
<path d="M31.7682 19.0649L8.05286 97.9183L51.3338 110.935L75.0492 32.0817L31.7682 19.0649Z" fill="#F2F2F2" stroke="#004698" stroke-width="3" stroke-miterlimit="10" stroke-linecap="round" stroke-linejoin="round"/>
<path d="M55.0301 69.0528C58.1795 58.5809 54.6976 48.2766 47.2529 46.0377C39.8083 43.7987 31.2201 50.4728 28.0706 60.9447C24.9212 71.4166 28.4031 81.7208 35.8478 83.9598C43.2924 86.1988 51.8806 79.5247 55.0301 69.0528Z" fill="#278BFF" stroke="#004698" stroke-width="2" stroke-miterlimit="10" stroke-linecap="round" stroke-linejoin="round"/>
<path d="M27.6941 32.6056C31.1614 33.6497 35.0249 33.3694 38.4658 31.5209C41.9047 29.6725 44.2691 26.6033 45.3132 23.138" stroke="#004698" stroke-width="2" stroke-miterlimit="10"/>
<path d="M61.1448 27.8972C60.1007 31.3645 60.381 35.228 62.2295 38.6689C64.0779 42.1078 67.1471 44.4722 70.6124 45.5162" stroke="#004698" stroke-width="2" stroke-miterlimit="10"/>
<path d="M55.0429 97.2827C51.5755 96.2386 47.7121 96.5189 44.2712 98.3673C40.8323 100.216 38.4679 103.285 37.4238 106.75" stroke="#004698" stroke-width="2" stroke-miterlimit="10"/>
<path d="M21.5923 101.991C22.6364 98.5237 22.356 94.6603 20.5076 91.2194C18.6592 87.7805 15.5899 85.4161 12.1246 84.372" stroke="#004698" stroke-width="2" stroke-miterlimit="10"/>
<path d="M77.6016 20.7513L19.3756 78.9773L51.3346 110.936L109.561 52.7103L77.6016 20.7513Z" fill="#F2F2F2" stroke="#004698" stroke-width="3" stroke-miterlimit="10" stroke-linecap="round" stroke-linejoin="round"/>
<path d="M74.4203 75.7973C82.1529 68.0648 83.965 57.34 78.4678 51.8428C72.9706 46.3456 62.2458 48.1577 54.5132 55.8903C46.7807 63.6228 44.9686 74.3476 50.4657 79.8448C55.9629 85.342 66.6878 83.5299 74.4203 75.7973Z" fill="#278BFF" stroke="#004698" stroke-width="2" stroke-miterlimit="10" stroke-linecap="round" stroke-linejoin="round"/>
<path d="M67.6022 30.7491C70.1615 33.3084 73.698 34.8928 77.6041 34.8928C81.5101 34.8928 85.0445 33.3105 87.6039 30.7511" stroke="#004698" stroke-width="2" stroke-miterlimit="10"/>
<path d="M99.2938 42.4389C96.7344 44.9983 95.15 48.5347 95.15 52.4408C95.15 56.3469 96.7324 59.8812 99.2917 62.4406" stroke="#004698" stroke-width="2" stroke-miterlimit="10"/>
<path d="M61.0656 100.667C58.5062 98.1073 54.9698 96.523 51.0637 96.523C47.1576 96.523 43.6232 98.1053 41.0638 100.665" stroke="#004698" stroke-width="2" stroke-miterlimit="10"/>
<path d="M29.374 88.9748C31.9334 86.4155 33.5178 82.8791 33.5178 78.973C33.5178 75.0669 31.9354 71.5325 29.3761 68.9731" stroke="#004698" stroke-width="2" stroke-miterlimit="10"/>
<path d="M102.465 32.1356L29.9362 71.1259L51.3371 110.936L123.866 71.9454L102.465 32.1356Z" fill="#F2F2F2" stroke="#004698" stroke-width="3" stroke-miterlimit="10" stroke-linecap="round" stroke-linejoin="round"/>
<path d="M83.5652 83.9339C93.1973 78.7559 98.0215 69.0072 94.3403 62.1596C90.6592 55.3121 79.8668 53.9586 70.2347 59.1366C60.6026 64.3146 55.7784 74.0633 59.4596 80.9108C63.1407 87.7584 73.9331 89.1119 83.5652 83.9339Z" fill="#278BFF" stroke="#004698" stroke-width="2" stroke-miterlimit="10" stroke-linecap="round" stroke-linejoin="round"/>
<path d="M90.0089 38.8314C91.7233 42.0205 94.6523 44.5555 98.3939 45.6808C102.133 46.8061 105.975 46.3084 109.164 44.5941" stroke="#004698" stroke-width="2" stroke-miterlimit="10"/>
<path d="M116.99 59.1561C113.801 60.8705 111.266 63.7995 110.141 67.5411C109.015 71.2806 109.513 75.1217 111.227 78.3108" stroke="#004698" stroke-width="2" stroke-miterlimit="10"/>
<path d="M63.6107 103.905C61.8964 100.715 58.9673 98.1805 55.2257 97.0552C51.4862 95.9298 47.6451 96.4275 44.4561 98.1419" stroke="#004698" stroke-width="2" stroke-miterlimit="10"/>
<path d="M36.6296 83.5798C39.8187 81.8655 42.3537 78.9364 43.479 75.1948C44.6043 71.4553 44.1067 67.6142 42.3923 64.4252" stroke="#004698" stroke-width="2" stroke-miterlimit="10"/>
<path d="M79.3347 69.3794C78.9223 69.2981 78.508 69.2961 78.0936 69.3733C77.6792 69.4505 77.1409 69.5825 76.4787 69.7734L74.74 66.9155C75.4306 66.753 76.0258 66.9114 76.5255 67.3908C76.954 67.795 77.3928 67.862 77.8397 67.5878C78.0773 67.4436 78.2297 67.2364 78.2947 66.9683C78.3597 66.7002 78.3231 66.4503 78.183 66.2208C78.057 66.0156 77.864 65.8227 77.6 65.6439C77.338 65.4652 77.0312 65.3209 76.6839 65.2133C76.237 65.065 75.7922 65.0223 75.3494 65.0833C74.9066 65.1462 74.4251 65.3006 73.9051 65.5484L73.4542 64.807C73.2267 64.4312 72.9647 64.3337 72.6722 64.5105C72.3837 64.6852 72.3573 64.9655 72.5909 65.3514L73.0337 66.0786C72.1359 66.7367 71.5895 67.472 71.3945 68.2805C71.1995 69.0889 71.3417 69.8872 71.8211 70.6753C72.1887 71.2806 72.6173 71.697 73.1089 71.9245C73.5984 72.1541 74.1144 72.2455 74.6526 72.2048C75.1909 72.1622 75.8186 72.0403 76.5356 71.8352L78.4775 75.0283C78.118 75.1278 77.795 75.1522 77.5086 75.0994C77.2222 75.0466 76.9744 74.9491 76.7611 74.8069C76.5478 74.6627 76.2655 74.4412 75.9141 74.1406C75.7536 74.0005 75.5728 73.9253 75.3717 73.9152C75.1706 73.905 74.9675 73.9639 74.7623 74.0878C74.5064 74.2442 74.3459 74.4616 74.2809 74.7439C74.2159 75.0262 74.2505 75.2741 74.3845 75.4955C74.5653 75.792 74.8151 76.0581 75.13 76.2877C75.4448 76.5172 75.8247 76.6959 76.2675 76.8198C76.7103 76.9437 77.1897 76.9783 77.7076 76.9275C78.2256 76.8767 78.77 76.7162 79.3428 76.4502L80.4701 78.3047C80.5981 78.5159 80.7261 78.65 80.854 78.7109C80.982 78.7719 81.1283 78.7516 81.2928 78.65C81.4715 78.5423 81.5487 78.4083 81.5264 78.2539C81.5041 78.0975 81.4106 77.8862 81.2461 77.6161L80.2061 75.9058C80.8276 75.4528 81.2887 74.9369 81.5894 74.358C81.89 73.7791 82.0241 73.188 81.9916 72.5847C81.9591 71.9794 81.7844 71.4167 81.4675 70.8947C81.2136 70.4783 80.9048 70.1411 80.5372 69.8852C80.1736 69.6272 79.7714 69.4586 79.3347 69.3794ZM75.4509 70.0497C74.9472 70.1492 74.5369 70.1675 74.224 70.1045C73.9092 70.0416 73.6431 69.8303 73.4217 69.4667C73.1901 69.0869 73.1251 68.7375 73.2267 68.4186C73.3283 68.0997 73.5355 67.7666 73.8503 67.4172L75.4509 70.0497ZM80.1269 73.3586C80.0456 73.7913 79.7998 74.1934 79.3936 74.5672L77.5634 71.5589C78.1322 71.4208 78.6034 71.3862 78.9812 71.4533C79.359 71.5223 79.6678 71.7559 79.9115 72.1541C80.137 72.5237 80.2081 72.9259 80.1269 73.3586Z" fill="#004698"/>
</svg>
