<svg width="171" height="51" viewBox="0 0 171 51" fill="none" xmlns="http://www.w3.org/2000/svg">
<rect x="56" y="31" width="110" height="19" rx="9.5" fill="#004698"/>
<path d="M67.02 41.734C67.02 42.538 66.942 43.222 66.786 43.786C66.63 44.35 66.39 44.806 66.066 45.154C65.754 45.49 65.352 45.736 64.86 45.892C64.38 46.048 63.81 46.126 63.15 46.126C62.79 46.126 62.424 46.096 62.052 46.036C61.68 45.988 61.338 45.922 61.026 45.838L61.152 44.506C61.428 44.578 61.746 44.65 62.106 44.722C62.466 44.782 62.892 44.812 63.384 44.812C64.092 44.812 64.602 44.578 64.914 44.11C65.238 43.642 65.4 42.922 65.4 41.95C65.4 41.638 65.37 41.38 65.31 41.176C65.262 40.96 65.184 40.786 65.076 40.654C64.968 40.522 64.83 40.42 64.662 40.348C64.506 40.264 64.326 40.198 64.122 40.15C63.282 39.97 62.658 39.664 62.25 39.232C61.842 38.8 61.638 38.152 61.638 37.288C61.638 36.544 61.728 35.914 61.908 35.398C62.1 34.882 62.364 34.468 62.7 34.156C63.036 33.844 63.438 33.622 63.906 33.49C64.374 33.346 64.89 33.274 65.454 33.274C65.802 33.274 66.15 33.31 66.498 33.382C66.846 33.442 67.146 33.508 67.398 33.58L67.272 34.894C66.972 34.822 66.642 34.756 66.282 34.696C65.934 34.624 65.58 34.588 65.22 34.588C64.956 34.588 64.704 34.636 64.464 34.732C64.224 34.816 64.014 34.966 63.834 35.182C63.654 35.386 63.51 35.656 63.402 35.992C63.294 36.316 63.24 36.712 63.24 37.18C63.24 37.66 63.33 38.002 63.51 38.206C63.69 38.41 64.014 38.56 64.482 38.656C64.866 38.74 65.214 38.854 65.526 38.998C65.838 39.13 66.102 39.316 66.318 39.556C66.546 39.784 66.72 40.078 66.84 40.438C66.96 40.786 67.02 41.218 67.02 41.734ZM80.4767 40.312C80.4767 42.304 80.1707 43.774 79.5587 44.722C78.9467 45.658 77.9627 46.126 76.6067 46.126C76.1267 46.126 75.6947 46.072 75.3107 45.964C74.9387 45.844 74.6207 45.646 74.3567 45.37C74.0927 45.082 73.8887 44.704 73.7447 44.236C73.6127 43.768 73.5467 43.18 73.5467 42.472C73.5467 40.528 73.8467 39.112 74.4467 38.224C75.0587 37.324 76.0487 36.874 77.4167 36.874C79.4567 36.874 80.4767 38.02 80.4767 40.312ZM78.8567 41.59C78.8927 41.122 78.9107 40.708 78.9107 40.348C78.9107 39.532 78.7907 38.962 78.5507 38.638C78.3107 38.302 77.8967 38.134 77.3087 38.134C76.9487 38.134 76.6427 38.194 76.3907 38.314C76.1387 38.434 75.9287 38.632 75.7607 38.908C75.6047 39.172 75.4787 39.526 75.3827 39.97C75.2867 40.414 75.2087 40.954 75.1487 41.59C75.1127 41.95 75.0947 42.28 75.0947 42.58C75.0947 43.396 75.2207 43.984 75.4727 44.344C75.7247 44.692 76.1387 44.866 76.7147 44.866C77.3867 44.866 77.8847 44.614 78.2087 44.11C78.5447 43.594 78.7607 42.754 78.8567 41.59ZM89.6705 45.91C89.5385 45.934 89.3825 45.964 89.2025 46C89.0225 46.036 88.8125 46.054 88.5725 46.054C88.4045 46.054 88.2365 46.03 88.0685 45.982C87.9005 45.922 87.7505 45.832 87.6185 45.712C87.4985 45.58 87.3965 45.406 87.3125 45.19C87.2405 44.974 87.2045 44.704 87.2045 44.38C87.2045 44.32 87.2045 44.23 87.2045 44.11C87.2165 43.978 87.2285 43.876 87.2405 43.804L88.1585 33.4H89.6885L88.8065 43.534C88.7945 43.654 88.7825 43.78 88.7705 43.912C88.7585 44.032 88.7525 44.11 88.7525 44.146C88.7525 44.362 88.7885 44.518 88.8605 44.614C88.9445 44.698 89.0885 44.74 89.2925 44.74C89.3885 44.74 89.4785 44.728 89.5625 44.704C89.6585 44.68 89.7305 44.662 89.7785 44.65L89.6705 45.91ZM98.536 37L98.032 42.94C98.02 43.072 98.008 43.198 97.996 43.318C97.996 43.426 97.996 43.534 97.996 43.642C97.996 43.99 98.068 44.278 98.212 44.506C98.356 44.722 98.668 44.83 99.148 44.83C99.496 44.83 99.79 44.746 100.03 44.578C100.27 44.41 100.462 44.194 100.606 43.93C100.762 43.666 100.876 43.384 100.948 43.084C101.02 42.772 101.068 42.478 101.092 42.202L101.524 37H103.054L102.28 46H101.02L100.984 45.046C100.744 45.382 100.45 45.646 100.102 45.838C99.754 46.03 99.316 46.126 98.788 46.126C98.332 46.126 97.954 46.072 97.654 45.964C97.366 45.844 97.132 45.682 96.952 45.478C96.784 45.262 96.664 45.004 96.592 44.704C96.52 44.392 96.484 44.044 96.484 43.66C96.484 43.516 96.484 43.372 96.484 43.228C96.496 43.084 96.508 42.928 96.52 42.76L97.006 37H98.536ZM111.95 38.35L111.5 43.444C111.488 43.54 111.476 43.648 111.464 43.768C111.464 43.876 111.464 43.942 111.464 43.966C111.464 44.05 111.476 44.146 111.5 44.254C111.524 44.35 111.566 44.44 111.626 44.524C111.686 44.608 111.764 44.68 111.86 44.74C111.968 44.788 112.106 44.812 112.274 44.812C112.526 44.812 112.754 44.794 112.958 44.758C113.174 44.722 113.348 44.686 113.48 44.65L113.372 45.91C113.252 45.946 113.042 45.988 112.742 46.036C112.442 46.084 112.13 46.108 111.806 46.108C111.122 46.108 110.636 45.922 110.348 45.55C110.06 45.166 109.916 44.68 109.916 44.092C109.916 44.008 109.922 43.9 109.934 43.768C109.946 43.624 109.958 43.498 109.97 43.39L110.42 38.35H109.25L109.358 37H110.528L110.726 34.84H112.256L112.058 37H114.146L114.038 38.35H111.95ZM120.631 35.02L120.775 33.4H122.485L122.341 35.02H120.631ZM119.767 46L120.541 37H122.071L121.297 46H119.767ZM135.591 40.312C135.591 42.304 135.285 43.774 134.673 44.722C134.061 45.658 133.077 46.126 131.721 46.126C131.241 46.126 130.809 46.072 130.425 45.964C130.053 45.844 129.735 45.646 129.471 45.37C129.207 45.082 129.003 44.704 128.859 44.236C128.727 43.768 128.661 43.18 128.661 42.472C128.661 40.528 128.961 39.112 129.561 38.224C130.173 37.324 131.163 36.874 132.531 36.874C134.571 36.874 135.591 38.02 135.591 40.312ZM133.971 41.59C134.007 41.122 134.025 40.708 134.025 40.348C134.025 39.532 133.905 38.962 133.665 38.638C133.425 38.302 133.011 38.134 132.423 38.134C132.063 38.134 131.757 38.194 131.505 38.314C131.253 38.434 131.043 38.632 130.875 38.908C130.719 39.172 130.593 39.526 130.497 39.97C130.401 40.414 130.323 40.954 130.263 41.59C130.227 41.95 130.209 42.28 130.209 42.58C130.209 43.396 130.335 43.984 130.587 44.344C130.839 44.692 131.253 44.866 131.829 44.866C132.501 44.866 132.999 44.614 133.323 44.11C133.659 43.594 133.875 42.754 133.971 41.59ZM142.175 46L142.949 37H144.209L144.227 38.044C144.491 37.684 144.809 37.402 145.181 37.198C145.553 36.982 146.015 36.874 146.567 36.874C147.503 36.874 148.145 37.102 148.493 37.558C148.841 38.002 149.015 38.638 149.015 39.466C149.015 39.586 149.009 39.712 148.997 39.844C148.997 39.976 148.991 40.108 148.979 40.24L148.493 46H146.963L147.449 40.24C147.461 40.144 147.473 40.03 147.485 39.898C147.497 39.754 147.503 39.64 147.503 39.556C147.503 39.148 147.413 38.818 147.233 38.566C147.053 38.302 146.699 38.17 146.171 38.17C145.835 38.17 145.541 38.248 145.289 38.404C145.049 38.56 144.845 38.758 144.677 38.998C144.521 39.238 144.401 39.508 144.317 39.808C144.233 40.108 144.179 40.396 144.155 40.672L143.705 46H142.175ZM160.82 43.03C160.82 44.098 160.562 44.884 160.046 45.388C159.53 45.88 158.696 46.126 157.544 46.126C157.028 46.126 156.59 46.096 156.23 46.036C155.882 45.976 155.606 45.916 155.402 45.856L155.528 44.542C155.636 44.566 155.774 44.596 155.942 44.632C156.11 44.656 156.29 44.686 156.482 44.722C156.686 44.746 156.896 44.77 157.112 44.794C157.34 44.818 157.562 44.83 157.778 44.83C158.066 44.83 158.3 44.776 158.48 44.668C158.672 44.56 158.822 44.428 158.93 44.272C159.038 44.104 159.11 43.93 159.146 43.75C159.194 43.558 159.218 43.378 159.218 43.21C159.218 42.886 159.14 42.646 158.984 42.49C158.84 42.322 158.576 42.19 158.192 42.094C157.364 41.902 156.77 41.614 156.41 41.23C156.05 40.834 155.87 40.366 155.87 39.826C155.87 38.746 156.152 37.984 156.716 37.54C157.292 37.096 158.084 36.874 159.092 36.874C159.536 36.874 159.926 36.91 160.262 36.982C160.61 37.042 160.868 37.096 161.036 37.144L160.928 38.458C160.784 38.422 160.64 38.386 160.496 38.35C160.352 38.314 160.202 38.284 160.046 38.26C159.89 38.236 159.716 38.218 159.524 38.206C159.344 38.182 159.134 38.17 158.894 38.17C158.606 38.17 158.366 38.212 158.174 38.296C157.994 38.38 157.85 38.494 157.742 38.638C157.634 38.77 157.556 38.926 157.508 39.106C157.472 39.274 157.454 39.448 157.454 39.628C157.454 39.916 157.538 40.144 157.706 40.312C157.874 40.468 158.144 40.582 158.516 40.654C159.356 40.822 159.95 41.11 160.298 41.518C160.646 41.914 160.82 42.418 160.82 43.03Z" fill="#BFD1E5"/>
<path d="M63.6396 11.21C63.6396 11.3174 63.5859 11.6719 63.4785 12.2734C63.3711 12.8643 63.2637 13.6646 63.1562 14.6743C63.0488 15.6733 62.9951 16.7153 62.9951 17.8003C62.9951 18.7349 63.0542 19.5942 63.1724 20.3784C63.3013 21.1519 63.5107 21.8823 63.8008 22.5698C64.0908 23.2573 64.4561 23.8428 64.8965 24.3262C65.3369 24.7988 65.8901 25.1748 66.5562 25.4541C67.2329 25.7227 68.001 25.8569 68.8604 25.8569C69.4404 25.8569 69.9614 25.7925 70.4233 25.6636C70.896 25.5239 71.272 25.3843 71.5513 25.2446C71.8306 25.105 72.0239 25.0352 72.1313 25.0352C72.3892 25.0352 72.5181 25.1748 72.5181 25.4541C72.5181 25.5723 72.4697 25.7441 72.373 25.9697C72.2764 26.1846 72.0991 26.4424 71.8413 26.7432C71.5942 27.0332 71.2935 27.3071 70.939 27.5649C70.5952 27.8228 70.1333 28.043 69.5532 28.2256C68.9839 28.4082 68.3555 28.4995 67.668 28.4995C62.3184 28.4995 59.6436 25.0459 59.6436 18.1387C59.6436 15.335 59.9121 13.4497 60.4492 12.4829C60.7285 11.9888 61.1475 11.5537 61.7061 11.1777C62.2646 10.8018 62.7212 10.6138 63.0757 10.6138C63.4517 10.6138 63.6396 10.8125 63.6396 11.21ZM73.3076 19.0249H67.1362C66.6743 19.0249 66.4434 18.8584 66.4434 18.5254C66.4434 18.375 66.5508 18.1064 66.7656 17.7197C66.9805 17.3223 67.2383 16.9893 67.5391 16.7207C67.7861 16.4951 68.1836 16.3823 68.7314 16.3823H75.7891C76.1865 16.3823 76.4551 16.4468 76.5947 16.5757C76.7451 16.6938 76.8525 16.9248 76.917 17.2686C77.0029 17.6982 77.0459 18.3374 77.0459 19.186C77.0459 21.0229 76.7666 22.7202 76.208 24.2778C75.832 25.2983 75.3271 26.1094 74.6934 26.7109C74.0596 27.3018 73.501 27.5972 73.0176 27.5972C72.8135 27.5972 72.7114 27.5112 72.7114 27.3394C72.7114 27.2534 72.7275 27.1782 72.7598 27.1138C72.792 27.0493 72.8564 26.9526 72.9531 26.8237C73.0605 26.6948 73.1572 26.5605 73.2432 26.4209C73.9307 25.2715 74.2744 23.5742 74.2744 21.3291C74.2744 20.9961 74.269 20.7383 74.2583 20.5557C74.2583 20.3623 74.2368 20.1582 74.1938 19.9434C74.1616 19.7178 74.1133 19.5459 74.0488 19.4277C73.9844 19.3096 73.8877 19.2129 73.7588 19.1377C73.6406 19.0625 73.4902 19.0249 73.3076 19.0249ZM75.4507 6.81104C75.4507 7.22998 75.1714 7.6543 74.6128 8.08398C74.0649 8.51367 73.5869 8.72852 73.1787 8.72852C72.8779 8.72852 72.4805 8.63184 71.9863 8.43848C71.4922 8.23437 70.9014 8.03564 70.2139 7.84229C69.5264 7.63818 68.8013 7.53613 68.0386 7.53613C66.9321 7.53613 65.8257 7.75635 64.7192 8.19678C63.6128 8.63721 62.6406 9.22266 61.8027 9.95312C61.2549 10.4365 60.9004 10.6782 60.7393 10.6782C60.4922 10.6782 60.3687 10.5439 60.3687 10.2754C60.3687 10.0928 60.4653 9.83496 60.6587 9.50195C60.8521 9.1582 61.0454 8.87891 61.2388 8.66406C62.3774 7.40723 63.6396 6.46729 65.0254 5.84424C66.4219 5.21045 68.0708 4.89355 69.9722 4.89355C71.272 4.89355 72.5073 5.08154 73.6782 5.45752C74.8599 5.82275 75.4507 6.27393 75.4507 6.81104ZM95.1733 23.0371L94.271 25.7603C94.0454 26.4478 93.6533 27.0225 93.0947 27.4844C92.5361 27.9355 91.9077 28.1611 91.2095 28.1611C91.0376 28.1611 90.8926 28.1128 90.7744 28.0161C90.667 27.9302 90.6133 27.8013 90.6133 27.6294C90.6133 27.5649 90.6348 27.4683 90.6777 27.3394L92.2246 22.9082C92.2998 22.6826 92.3804 22.5107 92.4663 22.3926C92.5522 22.2637 92.6704 22.1724 92.8208 22.1187C92.9819 22.0649 93.1216 22.0327 93.2397 22.022C93.3687 22.0112 93.5835 22.0059 93.8843 22.0059C94.1313 22.0059 94.314 22.0112 94.4321 22.022C94.5503 22.022 94.6846 22.0381 94.835 22.0703C94.9961 22.1025 95.1089 22.1616 95.1733 22.2476C95.2378 22.3228 95.27 22.4302 95.27 22.5698C95.27 22.6665 95.2378 22.8223 95.1733 23.0371ZM100.475 5.58643L107.339 25.5508C107.414 25.8945 107.452 26.0879 107.452 26.1309C107.452 26.5928 107.183 27.0493 106.646 27.5005C106.109 27.9409 105.636 28.1611 105.228 28.1611C104.874 28.1611 104.6 27.8872 104.406 27.3394L97.7031 7.77783C97.5957 7.29443 97.542 7.03662 97.542 7.00439C97.542 6.53174 97.8374 6.06445 98.4282 5.60254C99.0298 5.12988 99.4917 4.89355 99.814 4.89355C99.9966 4.89355 100.125 4.94189 100.201 5.03857C100.287 5.12451 100.378 5.30713 100.475 5.58643ZM100.185 21.0391H93.6426C93.2344 21.0391 93.0303 20.8618 93.0303 20.5073C93.0303 20.4106 93.0518 20.3032 93.0947 20.1851L96.3979 10.3076C96.5483 9.88867 96.7202 9.6792 96.9136 9.6792C97.0854 9.6792 97.2358 9.78662 97.3647 10.0015C97.4937 10.2056 97.6333 10.5386 97.7837 11.0005C98.063 11.8706 98.2026 12.5205 98.2026 12.9502C98.2026 13.251 98.1489 13.5679 98.0415 13.9009L96.7847 17.7358C96.7632 17.7896 96.7524 17.8647 96.7524 17.9614C96.7524 18.2515 96.9189 18.3965 97.252 18.3965H98.9277C99.4756 18.3965 99.8462 18.4233 100.04 18.4771C100.233 18.5308 100.389 18.6812 100.507 18.9282C100.614 19.1431 100.7 19.4224 100.765 19.7661C100.84 20.0991 100.877 20.3462 100.877 20.5073C100.877 20.8618 100.646 21.0391 100.185 21.0391ZM132.54 13.0952C132.54 12.2896 132.427 11.5859 132.202 10.9844C131.987 10.3721 131.697 9.8833 131.332 9.51807C130.977 9.14209 130.531 8.84131 129.994 8.61572C129.457 8.37939 128.904 8.21826 128.334 8.13232C127.776 8.04639 127.147 8.00342 126.449 8.00342H122.614C122.475 8.00342 122.362 7.99805 122.276 7.9873C122.201 7.97656 122.131 7.94434 122.066 7.89062C122.013 7.82617 121.986 7.74023 121.986 7.63281C121.986 7.1709 122.292 6.6875 122.904 6.18262C123.517 5.67773 124.134 5.41455 124.757 5.39307L127.819 5.34473C128.259 5.34473 128.678 5.36084 129.076 5.39307C129.473 5.41455 129.957 5.48438 130.526 5.60254C131.095 5.70996 131.616 5.85498 132.089 6.0376C132.562 6.22021 133.045 6.48877 133.539 6.84326C134.044 7.18701 134.463 7.59521 134.796 8.06787C135.14 8.54053 135.419 9.13672 135.634 9.85645C135.859 10.5762 135.972 11.3765 135.972 12.2573C135.972 14.5562 134.828 16.4951 132.54 18.0742C132.207 18.3105 132.041 18.5576 132.041 18.8154C132.041 19.0088 132.132 19.2451 132.314 19.5244L136.085 25.583C136.321 25.9697 136.439 26.3027 136.439 26.582C136.439 27.0117 136.155 27.3931 135.585 27.7261C135.124 28.0161 134.699 28.1611 134.312 28.1611C133.958 28.1611 133.646 27.9302 133.378 27.4683L128.915 19.6533C128.786 19.46 128.721 19.272 128.721 19.0894C128.721 18.7886 128.925 18.52 129.333 18.2837C130.386 17.6929 131.181 16.9463 131.718 16.0439C132.266 15.1416 132.54 14.1587 132.54 13.0952ZM121.986 17.623V9.88867C121.986 9.50195 122.115 9.24951 122.373 9.13135C122.641 9.00244 123.049 8.93799 123.597 8.93799C124.199 8.93799 124.618 9.00244 124.854 9.13135C125.101 9.24951 125.225 9.50195 125.225 9.88867V15.7539C125.225 16.2158 125.429 16.4468 125.837 16.4468H128.657C129.119 16.4468 129.35 16.5811 129.35 16.8496C129.35 17.1074 129.097 17.4082 128.592 17.752C128.087 18.085 127.464 18.3643 126.723 18.5898C126.272 18.7295 125.155 18.7993 123.372 18.7993C122.824 18.7993 122.453 18.7026 122.26 18.5093C122.077 18.3159 121.986 18.0205 121.986 17.623ZM125.225 20.7651V25.7603C125.225 26.2866 125.112 26.6787 124.886 26.9365C124.618 27.2588 124.236 27.5435 123.742 27.7905C123.259 28.0376 122.861 28.1611 122.55 28.1611C122.174 28.1611 121.986 27.9302 121.986 27.4683V20.7651C121.986 20.3784 122.12 20.1152 122.389 19.9756C122.668 19.8359 123.082 19.7661 123.629 19.7661C124.22 19.7661 124.634 19.8359 124.87 19.9756C125.106 20.1045 125.225 20.3677 125.225 20.7651ZM155.421 5.39307H164.428C164.89 5.39307 165.121 5.55957 165.121 5.89258C165.121 6.04297 165.014 6.31689 164.799 6.71436C164.584 7.11182 164.332 7.43945 164.042 7.69727C163.794 7.92285 163.397 8.03564 162.849 8.03564H153.278C153.117 8.03564 152.999 8.03027 152.923 8.01953C152.848 7.99805 152.778 7.94971 152.714 7.87451C152.66 7.79932 152.633 7.69189 152.633 7.55225C152.633 7.15479 152.945 6.69824 153.568 6.18262C154.202 5.65625 154.819 5.39307 155.421 5.39307ZM152.649 27.4683V19.7017C152.649 19.3149 152.778 19.0571 153.036 18.9282C153.305 18.7993 153.718 18.7349 154.277 18.7349C154.868 18.7349 155.281 18.7993 155.518 18.9282C155.765 19.0571 155.888 19.3149 155.888 19.7017V25.7603C155.888 26.2866 155.775 26.6787 155.55 26.9365C155.281 27.2588 154.9 27.5435 154.406 27.7905C153.922 28.0376 153.525 28.1611 153.213 28.1611C152.837 28.1611 152.649 27.9302 152.649 27.4683ZM152.649 17.1074V9.96924C152.649 9.58252 152.778 9.32471 153.036 9.1958C153.305 9.06689 153.718 9.00244 154.277 9.00244C154.878 9.00244 155.297 9.06689 155.534 9.1958C155.77 9.31396 155.888 9.57178 155.888 9.96924V14.4648C155.888 14.9053 156.108 15.1255 156.549 15.1255H163.107C163.569 15.1255 163.8 15.292 163.8 15.625C163.8 15.7754 163.692 16.0547 163.478 16.4629C163.263 16.8604 163.01 17.188 162.72 17.4458C162.473 17.6606 162.076 17.7681 161.528 17.7681H153.31C152.87 17.7681 152.649 17.5479 152.649 17.1074Z" fill="#004698"/>
<path d="M27.1483 4.30492C25.4084 2.56503 22.5886 2.56503 20.8487 4.30492L12.1402 13.0164L23.9985 24.8776L35.8598 13.0164L27.1453 4.30492H27.1483ZM37.9776 15.1372L26.1224 26.9985L37.9836 38.8598L46.6951 30.1453C48.435 28.4054 48.435 25.5886 46.6951 23.8517L37.9836 15.1372H37.9776ZM35.8598 40.9776L23.9985 29.1224L12.1372 40.9836L20.8517 49.6951C22.5916 51.435 25.4084 51.435 27.1453 49.6951L35.8598 40.9836V40.9776ZM10.0194 38.8598L21.8746 26.9985L10.0164 15.1372L1.30492 23.8517C-0.434973 25.5916 -0.434973 28.4084 1.30492 30.1453L10.0164 38.8598H10.0194Z" fill="#004698"/>
<path d="M14.7999 24.7143H5.46659C5.09841 24.7143 4.79993 24.3732 4.79993 23.9524V22.4286C4.79993 22.0078 5.09841 21.6667 5.46659 21.6667H14.7999C15.1681 21.6667 15.4666 22.0078 15.4666 22.4286V23.9524C15.4666 24.3732 15.1681 24.7143 14.7999 24.7143ZM13.7999 22.6191C13.5238 22.6191 13.2999 22.8749 13.2999 23.1905C13.2999 23.5061 13.5238 23.7619 13.7999 23.7619C14.0761 23.7619 14.2999 23.5061 14.2999 23.1905C14.2999 22.8749 14.0761 22.6191 13.7999 22.6191ZM12.4666 22.6191C12.1904 22.6191 11.9666 22.8749 11.9666 23.1905C11.9666 23.5061 12.1904 23.7619 12.4666 23.7619C12.7427 23.7619 12.9666 23.5061 12.9666 23.1905C12.9666 22.8749 12.7427 22.6191 12.4666 22.6191ZM14.7999 28.5238H5.46659C5.09841 28.5238 4.79993 28.1827 4.79993 27.7619V26.2381C4.79993 25.8173 5.09841 25.4762 5.46659 25.4762H14.7999C15.1681 25.4762 15.4666 25.8173 15.4666 26.2381V27.7619C15.4666 28.1827 15.1681 28.5238 14.7999 28.5238ZM13.7999 26.4286C13.5238 26.4286 13.2999 26.6844 13.2999 27C13.2999 27.3156 13.5238 27.5714 13.7999 27.5714C14.0761 27.5714 14.2999 27.3156 14.2999 27C14.2999 26.6844 14.0761 26.4286 13.7999 26.4286ZM12.4666 26.4286C12.1904 26.4286 11.9666 26.6844 11.9666 27C11.9666 27.3156 12.1904 27.5714 12.4666 27.5714C12.7427 27.5714 12.9666 27.3156 12.9666 27C12.9666 26.6844 12.7427 26.4286 12.4666 26.4286ZM14.7999 32.3334H5.46659C5.09841 32.3334 4.79993 31.9922 4.79993 31.5714V30.0476C4.79993 29.6269 5.09841 29.2857 5.46659 29.2857H14.7999C15.1681 29.2857 15.4666 29.6269 15.4666 30.0476V31.5714C15.4666 31.9922 15.1681 32.3334 14.7999 32.3334ZM13.7999 30.2381C13.5238 30.2381 13.2999 30.4939 13.2999 30.8095C13.2999 31.1251 13.5238 31.381 13.7999 31.381C14.0761 31.381 14.2999 31.1251 14.2999 30.8095C14.2999 30.4939 14.0761 30.2381 13.7999 30.2381ZM12.4666 30.2381C12.1904 30.2381 11.9666 30.4939 11.9666 30.8095C11.9666 31.1251 12.1904 31.381 12.4666 31.381C12.7427 31.381 12.9666 31.1251 12.9666 30.8095C12.9666 30.4939 12.7427 30.2381 12.4666 30.2381Z" fill="white" fill-opacity="0.76"/>
<path d="M22.6466 12.7177C22.7768 12.8479 22.9878 12.8479 23.118 12.7177L23.3536 12.482C23.4839 12.3518 23.4839 12.1408 23.3536 12.0106L22.6095 11.2666L23.3534 10.5225C23.4836 10.3923 23.4836 10.1812 23.3534 10.051L23.1178 9.81538C22.9876 9.68517 22.7766 9.68517 22.6464 9.81538L21.4309 11.0308C21.3007 11.161 21.3007 11.372 21.4309 11.5023L22.6466 12.7177V12.7177ZM24.6468 12.4823L24.8824 12.7179C25.0126 12.8481 25.2236 12.8481 25.3539 12.7179L26.5693 11.5025C26.6995 11.3723 26.6995 11.1612 26.5693 11.031L25.3539 9.81559C25.2236 9.68538 25.0126 9.68538 24.8824 9.81559L24.6468 10.0512C24.5166 10.1814 24.5166 10.3925 24.6468 10.5227L25.3907 11.2666L24.6468 12.0108C24.5166 12.141 24.5166 12.352 24.6468 12.4823V12.4823ZM30.3334 15.9333H25.2822C25.2668 16.346 24.9757 16.6 24.6001 16.6H23.3334C22.9441 16.6 22.6455 16.236 22.6507 15.9333H17.6668C17.4834 15.9333 17.3334 16.0833 17.3334 16.2666V16.6C17.3334 17.3333 17.9334 17.9333 18.6668 17.9333H29.3334C30.0668 17.9333 30.6668 17.3333 30.6668 16.6V16.2666C30.6668 16.0833 30.5168 15.9333 30.3334 15.9333ZM29.3334 8.26663C29.3334 7.71663 28.8834 7.26663 28.3334 7.26663H19.6668C19.1168 7.26663 18.6668 7.71663 18.6668 8.26663V15.2666H29.3334V8.26663ZM28.0001 13.9333H20.0001V8.59997H28.0001V13.9333Z" fill="white" fill-opacity="0.76"/>
<path d="M26.2334 33.9373C25.9801 33.9161 25.7134 33.9798 25.4667 34.1214L19.7001 37.6615C19.0601 38.0579 18.8467 38.9359 19.2134 39.6014L20.2134 41.4352C20.5801 42.1219 21.3934 42.3485 22.0334 41.9591L23.2334 41.2228C23.4134 41.5485 23.6801 41.8104 24.0067 41.9591V43.2123C24.0067 43.984 24.6001 44.6 25.3401 44.6H28.8001V43.2123H25.3401V41.9591C25.9467 41.6759 26.3401 41.0387 26.3401 40.3519C26.3401 40.0262 26.2601 39.7218 26.1134 39.4527L27.8001 38.419C28.4467 38.0225 28.6667 37.1659 28.2934 36.4791L27.2934 34.6453C27.0667 34.2205 26.6601 33.9798 26.2334 33.9373ZM18.2801 39.7643L15.4667 40.2599L15.9667 41.1803L17.3001 43.63L17.8001 44.5504L19.6134 42.214L18.2801 39.7643Z" fill="white" fill-opacity="0.75"/>
<path d="M43.0122 23.4101L38.3189 21.7433C38.1759 21.6927 38.0227 21.6667 37.8679 21.6667C37.7131 21.6667 37.5599 21.6927 37.4169 21.7433L32.7236 23.4101C32.286 23.5643 32 23.9289 32 24.3331C32 28.4689 34.7989 31.3275 37.4144 32.2568C37.7029 32.3589 38.028 32.3589 38.3164 32.2568C40.4113 31.513 43.7333 28.944 43.7333 24.3331C43.7333 23.9289 43.4473 23.5643 43.0122 23.4101ZM37.8691 30.965L37.8667 23.0267L42.1664 24.5539C42.0858 27.7084 40.1596 29.9941 37.8691 30.965Z" fill="white" fill-opacity="0.76"/>
</svg>
