<svg width="130" height="130" viewBox="0 0 130 130" fill="none" xmlns="http://www.w3.org/2000/svg">
<path d="M65 6.57719C31.5372 6.57719 4.31641 27.757 4.31641 53.7916C4.31641 66.6778 10.9545 78.7434 23.0141 87.7703C24.1475 88.6234 24.8117 89.958 24.8077 91.3758C24.7366 108.538 35.2138 118.379 43.3428 123.425C40.7306 110.902 47.4114 103.886 51.0128 101.114C51.9675 100.382 53.1659 100.051 54.3644 100.23C58.1486 100.756 61.6281 101.008 64.998 101.008C98.4588 101.008 125.682 79.8302 125.682 53.7936C125.684 27.755 98.4608 6.57719 65 6.57719Z" fill="#278BFF" stroke="#004698" stroke-width="3" stroke-miterlimit="10" stroke-linecap="round" stroke-linejoin="round"/>
<path d="M75.1542 70.1878H54.8458C53.3081 70.1878 52.0508 71.4452 52.0508 72.9828C52.0508 74.5205 53.3081 75.7778 54.8458 75.7778H75.1542C76.6919 75.7778 77.9492 74.5205 77.9492 72.9828C77.9492 71.4452 76.6919 70.1878 75.1542 70.1878Z" fill="#F2F2F2" stroke="#004698" stroke-width="2" stroke-miterlimit="10" stroke-linecap="round" stroke-linejoin="round"/>
<path d="M73.3769 75.7778H56.6231C55.0855 75.7778 53.8281 77.0351 53.8281 78.5728C53.8281 80.1105 55.0855 81.3678 56.6231 81.3678H73.3769C74.9145 81.3678 76.1719 80.1105 76.1719 78.5728C76.1719 77.0351 74.9145 75.7778 73.3769 75.7778Z" fill="#F2F2F2" stroke="#004698" stroke-width="2" stroke-miterlimit="10" stroke-linecap="round" stroke-linejoin="round"/>
<path d="M83.2812 53.432C83.2812 42.6339 75.0973 33.8812 65 33.8812C54.9027 33.8812 46.7188 42.6339 46.7188 53.432C46.7188 60.5556 50.2938 66.7712 55.6177 70.1878H74.3844C79.7062 66.7712 83.2812 60.5556 83.2812 53.432Z" fill="#F2F2F2" stroke="#004698" stroke-width="2" stroke-miterlimit="10" stroke-linecap="round" stroke-linejoin="round"/>
<path d="M59.9525 86.0417H70.0478L72.7473 81.3658H57.2529L59.9525 86.0417Z" fill="#F2F2F2" stroke="#004698" stroke-width="2" stroke-miterlimit="10" stroke-linecap="round" stroke-linejoin="round"/>
<path d="M63.2511 87.8678H66.749L67.6833 86.2489H62.3168L63.2511 87.8678Z" fill="#F2F2F2" stroke="#004698" stroke-width="2" stroke-miterlimit="10" stroke-linecap="round" stroke-linejoin="round"/>
<path d="M77.9492 53.0237C77.9492 45.3761 72.152 39.1747 65 39.1747L77.9492 53.0237Z" fill="#F2F2F2"/>
<path d="M77.9492 53.0237C77.9492 45.3761 72.152 39.1747 65 39.1747" stroke="#004698" stroke-miterlimit="10" stroke-linecap="round" stroke-linejoin="round"/>
<path d="M52.0508 53.0237C52.0508 58.0694 54.5817 62.4711 58.3538 64.8923L52.0508 53.0237Z" fill="#F2F2F2"/>
<path d="M52.0508 53.0237C52.0508 58.0694 54.5817 62.4711 58.3538 64.8923" stroke="#004698" stroke-miterlimit="10" stroke-linecap="round" stroke-linejoin="round"/>
<path d="M65 56.1519C67.274 56.1519 69.1174 54.3085 69.1174 52.0345C69.1174 49.7606 67.274 47.9172 65 47.9172C62.7261 47.9172 60.8827 49.7606 60.8827 52.0345C60.8827 54.3085 62.7261 56.1519 65 56.1519Z" stroke="#004698" stroke-miterlimit="10" stroke-linecap="round" stroke-linejoin="round"/>
<path d="M65 70.1878V56.1519" stroke="#004698" stroke-miterlimit="10" stroke-linecap="round" stroke-linejoin="round"/>
<path d="M33.093 52.0345H38.8475" stroke="#004698" stroke-miterlimit="10" stroke-linecap="round" stroke-linejoin="round"/>
<path d="M91.1523 52.0345H96.9069" stroke="#004698" stroke-miterlimit="10" stroke-linecap="round" stroke-linejoin="round"/>
<path d="M42.4388 74.5977L46.5074 70.527" stroke="#004698" stroke-miterlimit="10" stroke-linecap="round" stroke-linejoin="round"/>
<path d="M83.4926 33.542L87.5611 29.4734" stroke="#004698" stroke-miterlimit="10" stroke-linecap="round" stroke-linejoin="round"/>
<path d="M65 25.8822V20.1277" stroke="#004698" stroke-miterlimit="10" stroke-linecap="round" stroke-linejoin="round"/>
<path d="M87.5611 74.5977L83.4926 70.527" stroke="#004698" stroke-miterlimit="10" stroke-linecap="round" stroke-linejoin="round"/>
<path d="M46.5074 33.542L42.4388 29.4734" stroke="#004698" stroke-miterlimit="10" stroke-linecap="round" stroke-linejoin="round"/>
</svg>
