<svg width="110" height="110" viewBox="0 0 110 110" fill="none" xmlns="http://www.w3.org/2000/svg">
<path d="M55.0102 78.2485C51.5275 78.2485 48.6494 81.1266 48.6494 84.6093C48.6494 88.092 51.5275 90.9544 55.0102 90.9544C58.4928 90.9544 61.3553 88.092 61.3553 84.6093C61.3553 81.1266 58.4928 78.2485 55.0102 78.2485Z" fill="#FFB03B"/>
<path d="M12.6572 90.9546C9.17521 90.9546 6.31213 93.8177 6.31213 97.2997C6.31213 100.782 9.17521 103.66 12.6572 103.66H29.5984C33.0804 103.66 35.9435 100.782 35.9435 97.2997C35.9435 93.8177 33.0804 90.9546 29.5984 90.9546H12.6572Z" fill="#FFCD40"/>
<path d="M54.932 6.34269C39.2413 6.4227 27.4881 17.2441 27.4886 31.676C27.488 37.7641 29.4652 44.0309 33.068 48.9766C34.3108 50.6826 36.1678 52.5067 37.694 54.3684C39.2201 56.23 40.1789 58.1252 40.1789 58.854V63.4328C40.1799 63.7109 40.2356 63.9863 40.343 64.2428C40.4503 64.4994 40.6072 64.7321 40.8045 64.928C41.0019 65.1239 41.236 65.2792 41.4933 65.3846C41.7506 65.4901 42.0262 65.5437 42.3043 65.5426H67.7004C67.9785 65.5437 68.2541 65.4901 68.5114 65.3846C68.7688 65.2792 69.0028 65.1239 69.2002 64.928C69.3976 64.7321 69.5544 64.4994 69.6618 64.2428C69.7691 63.9863 69.8249 63.7109 69.8259 63.4328V58.854C69.8259 58.125 70.7846 56.23 72.3108 54.3684C73.8369 52.5066 75.6939 50.6672 76.9368 48.9612C80.5387 44.0165 82.5314 37.7626 82.5317 31.676C82.5317 17.1502 70.6381 6.26627 54.932 6.34269V6.34269Z" fill="#FFB03B"/>
<path d="M42.3043 69.7778C42.0249 69.7768 41.748 69.8311 41.4897 69.9375C41.2313 70.044 40.9966 70.2005 40.799 70.3981C40.6014 70.5957 40.4449 70.8303 40.3385 71.0887C40.232 71.347 40.1778 71.6239 40.1788 71.9033V76.1386C40.1788 79.6213 43.0569 82.4837 46.5396 82.4837H63.4807C66.9635 82.4837 69.8259 79.6213 69.8258 76.1386V71.9033C69.8269 71.6239 69.7727 71.347 69.6662 71.0887C69.5598 70.8303 69.4033 70.5957 69.2057 70.3981C69.0081 70.2005 68.7734 70.044 68.515 69.9375C68.2567 69.8311 67.9798 69.7768 67.7004 69.7778H42.3043Z" fill="#EFEBE9"/>
<path d="M42.3042 61.3232C38.8222 61.3232 35.9435 64.1863 35.9435 67.6684C35.9435 71.1503 38.8222 74.0137 42.3042 74.0137H67.7003C71.1823 74.0137 74.061 71.1503 74.061 67.6684C74.061 64.1863 71.1823 61.3232 67.7003 61.3232H42.3042Z" fill="#444444"/>
<path d="M14.7827 82.4839C11.3007 82.4839 8.422 85.3626 8.422 88.8446C8.422 92.3267 11.3007 95.1897 14.7827 95.1897H31.7239C35.2059 95.1897 38.069 92.3267 38.069 88.8446C38.069 85.3626 35.2059 82.4839 31.7239 82.4839H14.7827Z" fill="#FFCD40"/>
<path d="M12.6572 74.0137C9.17521 74.0137 6.31213 76.8921 6.31213 80.3742C6.31213 83.8562 9.17521 86.7195 12.6572 86.7195H29.5984C33.0804 86.7195 35.9435 83.8562 35.9435 80.3742C35.9435 76.8921 33.0804 74.0137 29.5984 74.0137H12.6572Z" fill="#FFCD40"/>
<path d="M16.8145 52.8679C14.248 52.3038 11.9789 53.3048 10.3131 54.2276C8.64728 55.1502 7.46873 56.1967 7.46873 56.1967C7.16719 56.461 6.94689 56.8056 6.83345 57.1901C6.72002 57.5747 6.71811 57.9835 6.82795 58.3691C6.82795 58.3691 7.23684 59.8061 8.15635 61.3543C9.07586 62.9025 10.6066 64.8376 13.1731 65.4018C15.7395 65.966 18.0086 64.9649 19.6745 64.0422C21.3403 63.1196 22.5188 62.073 22.5188 62.073C22.8204 61.8087 23.0407 61.4645 23.1541 61.0799C23.2675 60.6953 23.2694 60.2863 23.1596 59.9007C23.1596 59.9007 22.7663 58.4638 21.8468 56.9157C20.9273 55.3674 19.3809 53.4322 16.8145 52.8679V52.8679Z" fill="#7CB342"/>
<path d="M23.7222 54.9935C21.5789 55.4648 20.3396 57.0503 19.6119 58.2755C18.8842 59.5007 18.5648 60.6354 18.5648 60.6354C18.4518 61.0232 18.452 61.4354 18.5656 61.8231C18.6791 62.2108 18.9012 62.5578 19.2056 62.8233C19.2056 62.8233 20.1377 63.6336 21.4404 64.3552C22.7432 65.0769 24.5484 65.8888 26.6916 65.4177C28.8348 64.9464 30.0586 63.3765 30.7862 62.1513C31.5139 60.9261 31.8333 59.7758 31.8333 59.7758C31.9431 59.3902 31.9412 58.9814 31.8278 58.5969C31.7144 58.2123 31.4941 57.8677 31.1925 57.6035C31.1925 57.6035 30.2761 56.7934 28.9733 56.0719C27.6705 55.3501 25.8653 54.5225 23.7222 54.9935V54.9935Z" fill="#7CB342"/>
<path d="M78.2964 90.9546C74.8144 90.9546 71.9357 93.8177 71.9357 97.2997C71.9357 100.782 74.8144 103.66 78.2964 103.66H95.2375C98.7196 103.66 101.583 100.782 101.583 97.2997C101.583 93.8177 98.7196 90.9546 95.2375 90.9546H78.2964Z" fill="#FFCD40"/>
<path d="M80.4062 82.4839C76.9241 82.4839 74.061 85.3626 74.061 88.8446C74.061 92.3267 76.9241 95.1897 80.4062 95.1897H97.3473C100.829 95.1897 103.692 92.3267 103.692 88.8446C103.692 85.3626 100.829 82.4839 97.3473 82.4839H80.4062Z" fill="#FFCD40"/>
<path d="M89.9395 59.1978C82.3644 59.1978 76.1709 65.3915 76.1709 72.9666C76.1709 80.5416 82.3644 86.7195 89.9395 86.7195C97.5145 86.7195 103.692 80.5416 103.692 72.9666C103.692 65.3915 97.5145 59.1978 89.9395 59.1978Z" fill="#FFCD40"/>
<path d="M49.7122 33.7856C45.8737 33.7856 42.3043 36.3777 42.3043 40.1464C42.3043 43.9151 45.8737 46.4915 49.7122 46.4915C53.5506 46.4915 57.12 43.9151 57.12 40.1464C57.12 36.3777 53.5506 33.7856 49.7122 33.7856Z" fill="#EFEBE9"/>
<path d="M60.2925 33.7856C64.131 33.7856 67.7003 36.3777 67.7003 40.1464C67.7003 43.9151 64.131 46.4915 60.2925 46.4915C56.454 46.4915 52.8846 43.9151 52.8846 40.1464C52.8846 36.3777 56.454 33.7856 60.2925 33.7856Z" fill="#EFEBE9"/>
<path d="M54.9257 6.33243C39.235 6.41245 27.4812 17.248 27.4817 31.6799C27.4811 37.768 29.4736 44.0226 33.0764 48.9683C34.3192 50.6743 36.1773 52.5111 37.7035 54.3728C39.2296 56.2345 40.1845 58.114 40.1845 58.8427V61.7083C37.734 62.5934 35.9502 64.9364 35.9502 67.6752C35.9502 70.4139 37.734 72.7445 40.1845 73.6254V76.1272C40.1844 79.6099 43.0489 82.4909 46.5317 82.4909H49.0458C48.8078 83.1542 48.657 83.858 48.657 84.5997C48.657 87.3402 50.4389 89.6825 52.8913 90.5666V95.1935H44.4228C41.5972 95.1935 41.5972 99.432 44.4228 99.432C51.4813 99.432 58.5397 99.432 65.5982 99.432C68.4237 99.432 68.4237 95.1935 65.5982 95.1935H57.1255V90.5624C59.5758 89.675 61.3639 87.3357 61.3639 84.5997C61.3639 83.858 61.2102 83.1545 60.9711 82.4909H63.4728C66.9556 82.4909 69.8159 79.6099 69.8159 76.1272V73.6296C72.2689 72.75 74.0543 70.4158 74.0543 67.6752C74.0543 64.9347 72.2689 62.5879 69.8159 61.7042V58.8427C69.8159 58.1138 70.7914 56.2178 72.3176 54.3562C73.8438 52.4944 75.7019 50.6743 76.9446 48.9683C80.5466 44.0236 82.5225 37.7666 82.5228 31.6799C82.5227 17.1542 70.6318 6.25601 54.9257 6.33243V6.33243ZM54.9545 10.5665C68.7566 10.5025 78.2883 19.4123 78.2884 31.6799C78.2881 36.8281 76.5476 42.3113 73.5207 46.4665C72.6589 47.6497 70.742 49.6018 69.0342 51.6849C67.3265 53.7682 65.5981 55.9836 65.5981 58.8427V61.3113H61.3639V46.4087C64.7709 45.9822 67.7069 43.5684 67.7069 40.1527C67.7069 36.384 64.1396 33.7929 60.3011 33.7929C58.3062 33.7929 56.3946 34.5018 55.0083 35.7032C53.6222 34.5027 51.7137 33.7929 49.7197 33.7929C45.8812 33.7929 42.2974 36.384 42.2974 40.1527C42.2974 43.5694 45.2462 45.9834 48.657 46.4087V61.3113H44.4227V58.8427C44.4227 55.9836 42.6737 53.7682 40.9659 51.6849C39.2581 49.6018 37.3578 47.6663 36.4959 46.4831C33.4684 42.327 31.7154 36.8293 31.7159 31.6799C31.7154 19.4933 41.1372 10.6339 54.9546 10.5665H54.9545ZM49.7196 38.0272C51.7274 38.0272 52.8912 39.2444 52.8912 40.1527C52.8912 41.0609 51.7274 42.2613 49.7196 42.2613C47.7119 42.2613 46.5316 41.0609 46.5316 40.1527C46.5316 39.2444 47.7119 38.0272 49.7196 38.0272ZM60.3011 38.0272C62.3089 38.0272 63.4727 39.2444 63.4727 40.1527C63.4727 41.0609 62.3089 42.2613 60.3011 42.2613C58.2933 42.2613 57.1254 41.0609 57.1254 40.1527C57.1254 39.2444 58.2933 38.0272 60.3011 38.0272ZM55.0083 44.5936C55.6224 45.1241 56.3413 45.5461 57.1254 45.8629V61.3113H52.8912V45.8629C53.6759 45.546 54.3938 45.1245 55.0083 44.5936H55.0083ZM14.9567 52.7189C13.1577 52.8061 11.5707 53.54 10.3213 54.2321C8.65553 55.1547 7.47646 56.1881 7.47646 56.1881C6.84912 56.7266 6.59235 57.5806 6.81895 58.3756C6.81895 58.3756 7.2268 59.8126 8.1463 61.3608C9.06579 62.909 10.5997 64.8284 13.1662 65.3927C15.4146 65.8872 17.4197 65.1742 19.009 64.3713V74.0181H12.6659C9.18386 74.0181 6.30212 76.8834 6.30212 80.3654C6.30212 82.6085 7.50672 84.5862 9.2876 85.7203C8.75708 86.646 8.42752 87.699 8.42752 88.8338C8.42752 89.9711 8.75903 91.0307 9.29173 91.9599C7.50918 93.0891 6.30212 95.0622 6.30212 97.3065C6.30212 100.789 9.18386 103.666 12.6659 103.666H29.607C33.089 103.666 35.9501 100.789 35.9501 97.3065C35.9501 96.1713 35.6251 95.1146 35.0941 94.1887C36.8679 93.0541 38.0589 91.075 38.0589 88.8338C38.0589 86.5907 36.8664 84.6169 35.09 83.4874C35.6227 82.5581 35.9501 81.5027 35.9501 80.3654C35.9501 76.8834 33.089 74.0181 29.607 74.0181H23.2432V65.1527C24.2507 65.5023 25.3968 65.704 26.6836 65.4215C28.8268 64.9502 30.0661 63.3802 30.7937 62.155C31.5214 60.9297 31.8399 59.7814 31.8399 59.7814C32.0635 58.9948 31.8135 58.1497 31.199 57.6105C31.199 57.6105 30.2688 56.7979 28.9661 56.0765C27.6633 55.3548 25.8577 54.526 23.7146 54.9972C22.7476 55.21 21.9892 55.6646 21.3576 56.1923C20.4122 54.8118 19.008 53.3527 16.8215 52.872C16.1799 52.7311 15.5563 52.6903 14.9567 52.7191L14.9567 52.7189ZM15.1882 56.9861C15.4625 56.9621 15.7105 56.9701 15.916 57.0181C16.7378 57.199 17.5826 58.0442 18.1985 59.0813C18.402 59.4238 18.3598 59.4455 18.4921 59.7392C18.1405 59.9888 18.1305 60.0481 17.6196 60.3306C16.3801 61.0171 14.9101 61.4497 14.0883 61.269C13.2665 61.0882 12.4052 60.2429 11.7892 59.2058C11.5866 58.865 11.6237 58.84 11.4915 58.548C11.8446 58.2967 11.8521 58.2256 12.3681 57.9399C13.2978 57.4254 14.3654 57.0619 15.1882 56.9888L15.1882 56.9861ZM24.6367 59.1238C25.0351 59.0366 26.0427 59.2967 26.9192 59.7816C27.066 59.8633 27.0367 59.8737 27.1674 59.9553C27.157 59.9713 27.161 59.9713 27.1506 59.9873C26.7265 60.701 26.176 61.1981 25.7777 61.2856C25.3793 61.3729 24.3717 61.1303 23.4952 60.6446C23.3502 60.5638 23.3729 60.5502 23.2471 60.471V60.4669C23.2513 60.4589 23.2513 60.4589 23.2599 60.4429C23.684 59.7292 24.2386 59.2155 24.6368 59.1279L24.6367 59.1238ZM89.9325 59.2039C82.3575 59.2039 76.1795 65.3818 76.1795 72.9568C76.1795 76.669 77.6702 80.043 80.0747 82.5253C76.7497 82.7069 74.0541 85.4691 74.0541 88.8352C74.0541 89.9725 74.3834 91.0322 74.9183 91.9614C73.1404 93.0906 71.9411 95.0637 71.9411 97.308C71.9411 100.79 74.8063 103.668 78.2884 103.668H95.2295C98.7115 103.668 101.573 100.79 101.573 97.308C101.573 96.176 101.249 95.1226 100.721 94.1985C102.501 93.0653 103.698 91.0816 103.698 88.8352C103.698 86.0873 101.906 83.7507 99.443 82.8767C102.059 80.3669 103.698 76.8482 103.698 72.9568C103.698 65.3818 97.5076 59.2039 89.9325 59.2039V59.2039ZM89.9325 63.4382C95.2192 63.4382 99.4637 67.6702 99.4637 72.9568C99.4637 78.2436 95.2192 82.4921 89.9325 82.4921C84.6458 82.4921 80.4138 78.2436 80.4138 72.9568C80.4138 67.6702 84.6458 63.4382 89.9325 63.4382ZM42.4214 65.5512C50.5767 65.5554 59.5584 65.5512 67.7069 65.5512C68.6533 65.5512 69.8157 66.4221 69.8157 67.6767C69.8157 68.8861 68.7526 69.7855 67.7069 69.7855H42.2974C41.0879 69.7855 40.1844 68.8861 40.1844 67.6767C40.1844 66.4718 41.0824 65.5622 42.2849 65.5553C42.3306 65.5554 42.376 65.5538 42.4215 65.551L42.4214 65.5512ZM90.9787 67.6434C89.0648 67.6274 88.1151 69.9592 89.4942 71.2863L91.6196 73.3952C93.6035 75.7113 96.9211 72.3935 94.6051 70.4097L92.4962 68.2845C92.0976 67.8748 91.5503 67.6434 90.9787 67.6434V67.6434ZM86.7444 71.8777C84.8305 71.8617 83.8809 74.1935 85.26 75.5206L87.3854 77.6295C89.3693 79.9455 92.6869 76.6278 90.3708 74.644L88.2579 72.5185C87.8603 72.1096 87.3146 71.8785 86.7444 71.8777V71.8777ZM44.4227 74.0196H65.5981V76.1284C65.5981 77.3228 64.667 78.2539 63.4727 78.2539H46.5316C45.3372 78.2539 44.4227 77.3228 44.4227 76.1284L44.4227 74.0196ZM12.6659 78.2539H29.607C30.8165 78.2539 31.7159 79.1573 31.7159 80.3669C31.7159 81.5763 30.8165 82.4921 29.607 82.4921H12.6659C11.4564 82.4921 10.5405 81.5763 10.5405 80.3669C10.5405 79.1573 11.4564 78.2539 12.6659 78.2539H12.6659ZM55 82.4921C56.1944 82.4921 57.1254 83.4066 57.1254 84.6009C57.1254 85.7469 56.2609 86.6304 55.1365 86.7017C55.0813 86.6975 55.0264 86.6937 54.9712 86.6937C54.9376 86.6958 54.9048 86.698 54.8719 86.7017C53.7451 86.6377 52.8912 85.7492 52.8912 84.6009C52.8912 83.4066 53.8057 82.4921 55.0001 82.4921H55ZM14.7747 86.7264H29.607H31.7158C32.9253 86.7264 33.8412 87.6258 33.8412 88.8352C33.8412 90.0448 32.9253 90.9607 31.7158 90.9607H29.607H14.7748C13.5653 90.9607 12.6659 90.0448 12.6659 88.8352C12.6659 87.6258 13.5653 86.7264 14.7748 86.7264H14.7747ZM80.4138 86.7264H97.3549C98.5644 86.7264 99.4637 87.6258 99.4637 88.8352C99.4637 90.0448 98.5644 90.9607 97.3549 90.9607H95.2295H80.4138C79.2043 90.9607 78.2884 90.0448 78.2884 88.8352C78.2884 87.6258 79.2043 86.7264 80.4138 86.7264H80.4138ZM12.6659 95.195H14.7748H29.607C30.8165 95.195 31.7159 96.0985 31.7159 97.308C31.7159 98.5175 30.8165 99.4335 29.607 99.4335H12.6659C11.4564 99.4335 10.5405 98.5175 10.5405 97.308C10.5405 96.0985 11.4564 95.195 12.6659 95.195H12.6659ZM78.2884 95.195H95.2295C96.4389 95.195 97.3549 96.0985 97.3549 97.308C97.3549 98.5175 96.4389 99.4335 95.2295 99.4335H78.2884C77.0789 99.4335 76.1796 98.5175 76.1796 97.308C76.1796 96.0985 77.0789 95.195 78.2884 95.195H78.2884Z" fill="black"/>
</svg>
