<svg width="90" height="104" viewBox="0 0 90 104" fill="none" xmlns="http://www.w3.org/2000/svg">
<path d="M71.5443 78.3296L76.8715 90.8421L63.5527 90.3747L54.6386 100.244L48.3812 85.5598" fill="#FF3A21"/>
<path d="M41.6888 85.0343L35.5235 100.244L26.4371 90.5304L13.1283 91.2297L18.9747 76.8013" fill="#FF3A21"/>
<path d="M87.947 44.8398C87.947 47.0195 83.9771 48.8595 83.6443 50.9433C83.3075 53.0829 86.5115 56.0518 85.8538 58.0695C85.1862 60.1233 80.8354 60.6468 79.8671 62.5407C78.8866 64.4587 81.0038 68.2747 79.7448 69.9968C78.4776 71.7328 74.1789 70.8958 72.6632 72.4061C71.1434 73.9165 71.9816 78.1998 70.2433 79.4665C68.511 80.7172 64.6835 78.6035 62.7608 79.5825C60.8601 80.5514 60.3329 84.8807 58.2717 85.5499C56.2507 86.2034 53.2714 83.0107 51.1242 83.3483C49.029 83.678 47.1824 87.6357 44.999 87.6357C42.8136 87.6357 40.9651 83.678 38.8759 83.3483C36.7286 83.0107 33.7473 86.2034 31.7243 85.5499C29.6652 84.8807 29.1399 80.5514 27.2412 79.5825C25.3165 78.6035 21.487 80.7172 19.7568 79.4625C18.0185 78.1998 18.8545 73.9165 17.3368 72.4061C15.819 70.8918 11.5225 71.7308 10.2553 69.9968C8.99221 68.2706 11.1154 64.4547 10.1351 62.5407C9.16265 60.6468 4.81391 60.1194 4.14627 58.0695C3.48664 56.0518 6.69055 53.0829 6.35572 50.9433C6.02291 48.8595 2.0531 47.0155 2.0531 44.8398C2.0531 42.6642 6.02291 40.8222 6.35572 38.7384C6.69055 36.5987 3.48461 33.6299 4.14627 31.6161C4.81189 29.5643 9.15861 29.0348 10.133 27.1409C11.1115 25.2269 8.99221 21.411 10.2513 19.6869C11.5184 17.9548 15.8171 18.7899 17.3348 17.2755C18.8525 15.7631 18.0145 11.4797 19.7548 10.2191C21.485 8.96246 25.3145 11.0742 27.2372 10.0992C29.1359 9.13029 29.6652 4.79694 31.7223 4.13164C33.7473 3.47637 36.7246 6.66694 38.8759 6.33329C40.9651 6.00366 42.8136 2.0459 44.999 2.0459C47.1844 2.0459 49.033 6.00366 51.1242 6.33329C53.2714 6.66694 56.2507 3.47637 58.2758 4.13366C60.3348 4.80095 60.8621 9.13029 62.7608 10.0992C64.6876 11.0782 68.515 8.96246 70.2453 10.2191C71.9837 11.4818 71.1475 15.7631 72.6652 17.2755C74.183 18.7899 78.4816 17.9548 79.7448 19.6869C81.0078 21.411 78.8866 25.2269 79.8671 27.1429C80.8395 29.0348 85.1862 29.5623 85.8538 31.6141C86.5115 33.6299 83.3075 36.5987 83.6443 38.7384C83.9771 40.8222 87.947 42.6642 87.947 44.8398Z" fill="#EDF112"/>
<path d="M71.7951 44.8399C71.7951 59.588 59.7974 71.5412 44.999 71.5412C30.2005 71.5412 18.2029 59.588 18.2029 44.8399C18.2029 30.0938 30.2005 18.1387 44.999 18.1387C59.7974 18.1387 71.7951 30.0938 71.7951 44.8399Z" fill="#05FF00"/>
</svg>
