<svg width="317" height="317" viewBox="0 0 317 317" fill="none" xmlns="http://www.w3.org/2000/svg">
<path d="M9.03943 155.805C16.5335 155.805 22.6605 161.932 22.6605 169.426V256.933C22.6605 264.427 16.5335 270.554 9.03943 270.554V155.805Z" fill="#404040" stroke="black" stroke-width="2" stroke-miterlimit="10" stroke-linecap="round" stroke-linejoin="round"/>
<path d="M119.173 150.784L59.3107 210.646L70.984 222.32L130.846 162.458L119.173 150.784Z" fill="white" stroke="black" stroke-miterlimit="10" stroke-linecap="round" stroke-linejoin="round"/>
<path d="M63.9299 209.324H22.6605V225.833H63.9299V209.324Z" fill="white" stroke="black" stroke-miterlimit="10" stroke-linecap="round" stroke-linejoin="round"/>
<path d="M63.93 229.552C70.5417 229.552 75.9017 224.192 75.9017 217.581C75.9017 210.969 70.5417 205.609 63.93 205.609C57.3182 205.609 51.9583 210.969 51.9583 217.581C51.9583 224.192 57.3182 229.552 63.93 229.552Z" fill="white" stroke="black" stroke-miterlimit="10" stroke-linecap="round" stroke-linejoin="round"/>
<path d="M279.491 139.211L258.441 132.3L240.097 188.179L261.147 195.089L279.491 139.211Z" fill="#404040" stroke="black" stroke-width="3" stroke-miterlimit="10" stroke-linecap="round" stroke-linejoin="round"/>
<path d="M260.399 128.767L66.0283 64.9585L43.2954 134.207L237.666 198.015L260.399 128.767Z" fill="white" stroke="black" stroke-width="2" stroke-miterlimit="10" stroke-linecap="round" stroke-linejoin="round"/>
<path d="M307.96 123.873L72.1075 46.4453L62.6272 75.3171L58.64 87.472L53.6472 102.668L168.149 140.257L186.847 129.564L267.067 155.895L307.96 123.873Z" fill="white" stroke="black" stroke-width="3" stroke-miterlimit="10" stroke-linecap="round" stroke-linejoin="round"/>
<path d="M87.3879 89.6367C91.2724 89.6367 94.4214 86.4877 94.4214 82.6033C94.4214 78.7188 91.2724 75.5698 87.3879 75.5698C83.5035 75.5698 80.3545 78.7188 80.3545 82.6033C80.3545 86.4877 83.5035 89.6367 87.3879 89.6367Z" fill="white" stroke="black" stroke-miterlimit="10" stroke-linecap="round" stroke-linejoin="round"/>
<path d="M109.756 96.9824C113.641 96.9824 116.79 93.8334 116.79 89.949C116.79 86.0645 113.641 82.9155 109.756 82.9155C105.872 82.9155 102.723 86.0645 102.723 89.949C102.723 93.8334 105.872 96.9824 109.756 96.9824Z" fill="white" stroke="black" stroke-miterlimit="10" stroke-linecap="round" stroke-linejoin="round"/>
<path d="M132.125 104.323C136.009 104.323 139.158 101.174 139.158 97.2893C139.158 93.4048 136.009 90.2559 132.125 90.2559C128.24 90.2559 125.091 93.4048 125.091 97.2893C125.091 101.174 128.24 104.323 132.125 104.323Z" fill="white" stroke="black" stroke-miterlimit="10" stroke-linecap="round" stroke-linejoin="round"/>
<path d="M192.909 165.474L225.818 176.276" stroke="black" stroke-miterlimit="10" stroke-linecap="round" stroke-linejoin="round"/>
<path d="M58.64 87.4721C43.0673 74.8417 24.0969 90.9591 20.3672 106.997C17.1972 120.628 23.7601 132.338 31.9327 142.675C39.9617 152.824 56.1386 168.931 37.5149 178.208C32.9184 180.497 27.7127 181.195 22.6208 181.859" stroke="black" stroke-miterlimit="10" stroke-linecap="round" stroke-linejoin="round"/>
</svg>
