<svg width="30" height="30" viewBox="0 0 30 30" fill="none" xmlns="http://www.w3.org/2000/svg">
<path d="M13.0734 29.9707L10.214 28.9336C9.914 28.8281 9.74525 28.4356 9.82962 28.0606L16.228 0.509785C16.3124 0.134785 16.6265 -0.0761528 16.9265 0.029316L19.7859 1.06643C20.0859 1.17189 20.2546 1.56447 20.1702 1.93947L13.7718 29.4903C13.6827 29.8653 13.3734 30.0821 13.0734 29.9707V29.9707ZM7.72962 23.3965L9.76868 20.6778C9.98431 20.3906 9.97025 19.9336 9.73118 19.6699L5.48432 15L9.73118 10.3301C9.97025 10.0664 9.989 9.6094 9.76868 9.32229L7.72962 6.60354C7.51869 6.32229 7.16244 6.30471 6.93275 6.57424L0.178076 14.4844C-0.0609862 14.7598 -0.0609862 15.2344 0.178076 15.5098L6.93275 23.4258C7.16244 23.6953 7.51869 23.6836 7.72962 23.3965V23.3965ZM23.0671 23.4317L29.8218 15.5156C30.0608 15.2403 30.0608 14.7656 29.8218 14.4903L23.0671 6.56838C22.8421 6.30471 22.4858 6.31643 22.2702 6.59768L20.2312 9.31643C20.0155 9.60354 20.0296 10.0606 20.2687 10.3242L24.5155 15L20.2687 19.6699C20.0296 19.9336 20.0109 20.3906 20.2312 20.6778L22.2702 23.3965C22.4812 23.6836 22.8374 23.6953 23.0671 23.4317V23.4317Z" fill="#004698"/>
</svg>
