<svg width="30" height="28" viewBox="0 0 30 28" fill="none" xmlns="http://www.w3.org/2000/svg">
<path d="M19.9547 14C19.1625 14 18.4172 13.4727 18.0141 12.6289L15 6.38284L11.9906 12.6289C11.5828 13.4785 10.8375 14.0059 10.0453 14.0059C9.8344 14.0059 9.62346 13.9707 9.4219 13.8946L3.00003 11.5977V22.0274C3.00003 22.8887 3.46878 23.6387 4.1344 23.8438L14.2688 27.0137C14.7469 27.1602 15.2485 27.1602 15.7219 27.0137L25.8656 23.8438C26.5313 23.6328 27 22.8828 27 22.0274V11.5977L20.5781 13.8887C20.3766 13.9649 20.1656 14 19.9547 14ZM29.9203 7.42581L27.5063 1.40237C27.3609 1.03909 27.0469 0.828155 26.7234 0.880889L15 2.75003L19.2985 11.6621C19.4766 12.0313 19.8328 12.2071 20.1656 12.0899L29.4422 8.77932C29.9062 8.6094 30.1313 7.96487 29.9203 7.42581V7.42581ZM2.49378 1.40237L0.0797183 7.42581C-0.135906 7.96487 0.0937808 8.6094 0.553155 8.77346L9.82971 12.084C10.1625 12.2012 10.5188 12.0254 10.6969 11.6563L15 2.75003L3.2719 0.880889C2.94847 0.834014 2.63909 1.03909 2.49378 1.40237V1.40237Z" fill="#004698"/>
</svg>
