<svg width="339" height="339" viewBox="0 0 339 339" fill="none" xmlns="http://www.w3.org/2000/svg">
<g clip-path="url(#clip0_28_35)">
<path d="M2.6485 246.239V269.082C2.6485 274.776 7.21705 279.344 12.9112 279.344H326.023C331.717 279.344 336.352 274.776 336.352 269.082V246.239H2.6485Z" fill="#D3D9D9"/>
<path d="M301.392 279.344H326.089C331.717 279.344 336.285 274.776 336.285 269.148V246.239H311.655V269.148C311.655 274.776 307.086 279.344 301.392 279.344Z" fill="#A8B2B4"/>
<path d="M37.6079 279.344H12.845C7.21705 279.344 2.6485 274.776 2.6485 269.148V246.239H27.279V269.148C27.279 274.776 31.8475 279.344 37.6079 279.344Z" fill="#EDEDED"/>
<path d="M336.352 32.9731V246.239H2.6485V32.9731C2.6485 27.3452 7.21705 22.7104 12.845 22.7104H325.957C331.651 22.7104 336.352 27.3452 336.352 32.9731Z" fill="#D3F0FD"/>
<path d="M326.023 20.062H12.9112C5.82662 20.062 6.10352e-05 25.8224 6.10352e-05 32.9731V269.081C6.10352e-05 276.232 5.82662 281.992 12.9112 281.992H132.422L118.12 313.641H109.447C107.99 313.641 106.798 314.833 106.798 316.29C106.798 317.746 107.99 318.938 109.447 318.938H229.686C231.142 318.938 232.334 317.746 232.334 316.29C232.334 314.833 231.142 313.641 229.686 313.641H221.012L206.578 281.992H326.023C333.173 281.992 339 276.166 339 269.081V32.9731C339 25.8224 333.173 20.062 326.023 20.062ZM215.053 313.641H123.881L138.182 281.992H200.685L215.053 313.641ZM333.703 269.081C333.703 273.253 330.26 276.696 326.023 276.696H12.9112C8.7399 276.696 5.29694 273.253 5.29694 269.081V248.887H333.703V269.081ZM333.703 243.59H5.29694V32.9731C5.29694 28.7356 8.67369 25.3589 12.845 25.3589H325.957C330.194 25.3589 333.637 28.8019 333.637 32.9731V243.59H333.703Z" fill="black"/>
<path d="M157.979 262.791C157.979 265.44 155.861 267.492 153.278 267.492C150.696 267.492 148.577 265.374 148.577 262.791C148.577 260.209 150.696 258.09 153.278 258.09C155.861 258.09 157.979 260.209 157.979 262.791Z" fill="#7C8B8E"/>
<path d="M174.201 262.791C174.201 265.44 172.082 267.492 169.5 267.492C166.918 267.492 164.799 265.374 164.799 262.791C164.799 260.209 166.918 258.09 169.5 258.09C172.082 258.09 174.201 260.209 174.201 262.791Z" fill="#7C8B8E"/>
<path d="M190.489 262.791C190.489 265.44 188.37 267.492 185.788 267.492C183.206 267.492 181.087 265.374 181.087 262.791C181.087 260.209 183.206 258.09 185.788 258.09C188.37 258.09 190.489 260.209 190.489 262.791Z" fill="#7C8B8E"/>
<path d="M252.86 97.9262C239.949 110.837 219.026 110.837 206.049 97.9262C193.137 85.015 193.137 64.0262 206.049 51.115C215.186 41.9779 228.295 39.3295 239.75 43.1035L215.252 67.6016L219.622 84.3529L236.373 88.7229L260.871 64.2248C264.645 75.6131 261.997 88.7891 252.86 97.9262Z" fill="#D3D8D9"/>
<path d="M239.816 43.1037L235.446 47.4736C226.971 47.4736 218.562 50.718 212.14 57.1404C200.222 69.0584 199.295 87.7961 209.359 100.707C208.234 99.8465 207.174 98.9195 206.115 97.8602C193.204 84.949 193.204 64.0264 206.115 51.049C215.186 41.9781 228.362 39.3297 239.816 43.1037Z" fill="#EDEDED"/>
<path d="M252.86 97.9265C239.949 110.838 219.026 110.838 206.049 97.9265C205.055 96.9333 204.062 95.8739 203.268 94.7483C216.245 104.746 234.917 103.819 246.834 91.9013C253.257 85.4788 256.501 77.0038 256.501 68.595L260.871 64.2251C264.645 75.6134 261.997 88.7894 252.86 97.9265Z" fill="#A8B1B3"/>
<path d="M86.1406 171.023C99.0517 158.112 119.974 158.112 132.952 171.023C145.863 183.934 145.863 204.923 132.952 217.834C123.815 226.971 110.705 229.62 99.2503 225.846L123.748 201.348L119.378 184.596L102.627 180.227L78.129 204.725C74.355 193.27 77.0034 180.16 86.1406 171.023Z" fill="#D3D8D9"/>
<path d="M99.2504 225.846L103.62 221.476C112.095 221.476 120.504 218.231 126.927 211.809C138.844 199.891 139.771 181.153 129.707 168.242C130.833 169.103 131.892 170.03 132.952 171.089C145.863 184 145.863 204.923 132.952 217.9C123.815 226.971 110.705 229.62 99.2504 225.846Z" fill="#A8B1B3"/>
<path d="M86.1406 171.023C99.0517 158.112 119.974 158.112 132.952 171.023C133.945 172.016 134.938 173.076 135.733 174.201C122.755 164.203 104.084 165.13 92.1658 177.048C85.7433 183.471 82.499 191.946 82.499 200.355L78.1291 204.725C74.3551 193.27 77.0697 180.16 86.1406 171.023Z" fill="#EDEDED"/>
<path d="M180.293 145.201C167.514 157.98 154.073 170.229 140.169 181.749C138.58 177.843 136.13 174.201 133.018 171.023C129.84 167.845 126.198 165.462 122.292 163.872C133.879 149.902 146.061 136.527 158.84 123.749C171.619 110.97 184.994 98.7871 198.964 87.2002C200.619 91.1066 203.003 94.7482 206.181 97.9264C209.359 101.104 213.001 103.488 216.907 105.077C205.254 119.048 193.071 132.422 180.293 145.201Z" fill="#A8B1B3"/>
<path d="M216.841 105.077C205.254 119.048 193.071 132.422 180.292 145.201C167.514 157.98 154.139 170.229 140.169 181.749C139.175 179.366 137.917 177.048 136.328 174.93C149.703 163.806 162.548 152.021 174.797 139.705C187.046 127.456 198.832 114.611 210.021 101.237C212.14 102.826 214.457 104.084 216.841 105.077Z" fill="#7C8B8D"/>
<path d="M198.898 87.2002C199.891 89.5838 201.149 91.835 202.738 94.0199C189.363 105.21 176.518 116.929 164.269 129.244C152.02 141.559 140.235 154.404 129.045 167.713C126.926 166.124 124.609 164.866 122.225 163.872C133.812 149.902 145.995 136.527 158.774 123.749C171.553 110.904 184.927 98.7209 198.898 87.2002Z" fill="#D3D8D9"/>
<path d="M122.326 74.8571L109.779 87.4043L182.674 160.3L195.221 147.752L122.326 74.8571Z" fill="#D3D8D9"/>
<path d="M122.371 74.8347L109.824 87.3818L116.941 94.4981L129.488 81.951L122.371 74.8347Z" fill="#EDEDED"/>
<path d="M188.109 140.605L175.562 153.152L182.678 160.268L195.225 147.721L188.109 140.605Z" fill="#A8B1B3"/>
<path d="M122.358 74.8187L109.778 87.3987L103.09 82.6978L92.2319 75.1497L83.2272 60.8481L95.8073 48.2681L110.109 57.2728L117.657 68.1313L122.358 74.8187Z" fill="#D3D8D9"/>
<path d="M102.495 52.5056L87.4647 67.5354L83.2272 60.8481L95.8073 48.2681L102.495 52.5056Z" fill="#EDEDED"/>
<path d="M122.358 74.8187L109.778 87.3987L103.09 82.6978L117.657 68.1313L122.358 74.8187Z" fill="#A8B1B3"/>
<path d="M177.71 173.009L225.581 220.88C233.592 228.891 246.636 229.818 255.177 222.403C260.077 218.099 262.526 212.206 262.526 206.247C262.526 200.752 260.408 195.256 256.236 191.151L207.902 142.817C205.784 140.698 202.275 140.698 200.156 142.817L177.71 165.263C175.592 167.381 175.592 170.824 177.71 173.009Z" fill="#FB8A8A"/>
<path d="M253.522 223.595C254.051 223.197 254.647 222.734 255.177 222.337C260.077 218.033 262.526 212.14 262.526 206.181C262.526 200.686 260.408 195.19 256.236 191.085L207.902 142.751C205.784 140.632 202.274 140.632 200.156 142.751L195.124 147.783C197.242 145.664 200.752 145.664 202.87 147.783L251.204 196.117C255.376 200.288 257.428 205.784 257.494 211.213C257.494 215.583 256.17 219.953 253.522 223.595Z" fill="#FCB1B1"/>
<path d="M177.71 173.009L225.581 220.88C233.592 228.891 246.636 229.818 255.177 222.403C256.501 221.277 257.627 220.019 258.554 218.629C250.013 224.654 238.095 223.329 230.613 215.848L182.742 167.977C180.624 165.858 180.624 162.349 182.742 160.23L177.71 165.263C175.592 167.381 175.592 170.824 177.71 173.009Z" fill="#F96363"/>
<path d="M209.823 140.897C206.644 137.719 201.48 137.719 198.302 140.897L195.19 144.009L190.092 138.911C199.626 128.979 208.829 118.716 217.635 108.189C230.944 112.89 245.179 109.314 254.714 99.78C264.314 90.1795 267.625 76.209 263.387 63.364C263.122 62.5033 262.394 61.8412 261.467 61.6426C260.606 61.4439 259.613 61.7088 258.951 62.3709L235.512 85.8095L221.74 82.2341L218.165 68.4623L241.67 44.9574C242.332 44.2953 242.597 43.3683 242.398 42.5076C242.2 41.5806 241.538 40.9185 240.677 40.5875C227.766 36.35 213.861 39.6605 204.261 49.2611C194.263 59.259 191.482 73.7592 195.918 86.3392C185.391 95.0791 175.128 104.349 165.196 113.883L124.477 73.1633L112.294 55.7498C112.095 55.4849 111.83 55.2201 111.499 55.0215L97.1977 46.0168C96.1384 45.3547 94.8141 45.4871 93.8872 46.414L81.3071 58.9941C80.4464 59.8549 80.2477 61.2453 80.9098 62.3047L89.9145 76.6062C90.1132 76.8711 90.3118 77.1359 90.6428 77.3345L107.99 89.4511L148.71 130.171C139.175 140.103 129.972 150.299 121.232 160.76C107.924 155.927 93.4899 159.767 84.1542 169.169C74.5536 178.77 71.243 192.74 75.4805 205.585C75.7454 206.446 76.4737 207.108 77.4007 207.307C78.2614 207.505 79.2546 207.24 79.9167 206.578L103.355 183.14L117.127 186.715L120.703 200.487L97.3301 223.992C96.668 224.654 96.4032 225.581 96.6018 226.508C96.8005 227.435 97.4626 228.097 98.3233 228.428C102.031 229.62 105.805 230.282 109.579 230.282C118.849 230.282 127.92 226.64 134.739 219.82C144.737 209.823 147.518 195.322 143.148 182.742C153.609 174.003 163.806 164.799 173.738 155.265L178.836 160.363L175.724 163.475C172.546 166.653 172.546 171.818 175.724 174.996L223.594 222.866C232.732 232.003 247.298 232.732 256.832 224.455C267.36 215.252 267.956 199.163 258.09 189.297L209.823 140.897ZM207.969 52.9689C213.795 47.1424 221.476 44.0304 229.421 44.0304C231.142 44.0304 232.93 44.1629 234.652 44.4939L213.464 65.6814C212.802 66.3435 212.537 67.3367 212.802 68.1974L217.172 84.9488C217.437 85.8758 218.165 86.6041 219.092 86.8689L235.777 91.2388C236.704 91.4375 237.631 91.2388 238.293 90.5767L259.481 69.3892C261.202 79.056 258.09 88.9877 251.006 96.0722C239.154 107.924 219.82 107.924 207.969 96.0722C196.117 84.2205 196.117 64.8869 207.969 52.9689ZM197.971 91.3713C199.626 94.4832 201.679 97.264 204.195 99.78C206.711 102.296 209.491 104.349 212.537 106.004C204.195 115.936 195.389 125.669 186.318 135.07L168.772 117.525C178.306 108.52 188.039 99.7138 197.971 91.3713ZM94.2182 73.2957L86.604 61.2453L96.2046 51.6447L108.255 59.1927L118.915 74.4875L109.513 83.8894L94.2182 73.2957ZM131.098 215.914C124.013 222.999 114.082 226.111 104.415 224.389L125.602 203.202C126.264 202.539 126.529 201.546 126.264 200.686L121.894 183.934C121.63 183.007 120.901 182.279 119.974 182.014L103.289 177.644C102.362 177.379 101.435 177.644 100.773 178.306L79.5856 199.494C77.8641 189.827 80.976 179.895 88.0606 172.811C99.78 161.091 118.981 160.694 131.098 172.811C142.949 184.795 142.949 204.062 131.098 215.914ZM141.029 177.578C139.374 174.466 137.322 171.685 134.806 169.169C132.29 166.653 129.509 164.601 126.463 162.945C134.806 153.014 143.545 143.347 152.616 133.945L170.096 151.425C160.694 160.429 150.961 169.235 141.029 177.578ZM113.552 87.3986L122.358 78.5925L191.482 147.717L182.676 156.523L113.552 87.3986ZM253.456 220.35C246.04 226.773 234.652 226.177 227.435 218.96L179.564 171.089C179.034 170.56 178.703 169.831 178.703 169.103C178.703 168.375 178.968 167.646 179.564 167.117L202.01 144.671C202.539 144.141 203.268 143.81 203.996 143.81C204.724 143.81 205.453 144.075 205.982 144.671L254.316 193.005C262.129 200.686 261.599 213.199 253.456 220.35Z" fill="black"/>
<path d="M245.841 204.526L203.135 161.82C202.076 160.76 202.076 159.105 203.135 158.046C204.195 156.986 205.85 156.986 206.909 158.046L249.615 200.752C250.675 201.811 250.675 203.466 249.615 204.526C248.556 205.585 246.901 205.585 245.841 204.526Z" fill="black"/>
<path d="M235.38 214.193L193.071 171.884C192.012 170.825 192.012 169.169 193.071 168.11C194.131 167.051 195.786 167.051 196.845 168.11L239.154 210.419C240.213 211.478 240.213 213.133 239.154 214.193C238.095 215.252 236.373 215.252 235.38 214.193Z" fill="black"/>
</g>
<defs>
<clipPath id="clip0_28_35">
<rect width="339" height="339" fill="white"/>
</clipPath>
</defs>
</svg>
